<mxfile host="app.diagrams.net" modified="2022-04-17T21:02:47.556Z" agent="5.0 (Windows)" etag="QODx4OibjOez7WN30Dhb" version="17.2.6" type="github">
  <diagram id="BNvduAGO82aBx42t-slf" name="Page-1">
    <mxGraphModel dx="1102" dy="600" grid="1" gridSize="10" guides="1" tooltips="1" connect="1" arrows="1" fold="1" page="1" pageScale="1" pageWidth="850" pageHeight="1100" math="0" shadow="0">
      <root>
        <mxCell id="0" />
        <mxCell id="1" parent="0" />
        <mxCell id="bA4HHIahDuAjgqxs_33y-18" value="" style="shape=image;verticalLabelPosition=bottom;labelBackgroundColor=default;verticalAlign=top;aspect=fixed;imageAspect=0;image=data:image/png,iVBORw0KGgoAAAANSUhEUgAABkAAAAKuCAMAAADO0yB0AAAB3VBMVEU9R1L2jSB7iZj///9udX2eo6nP0dTIfC2aajlNWGT7xpD4qljz9PRJU11caHVhanKGjJO2ur7b3d/e4uVrWUZkcH69xMycp7JseYf948dVXmjn6OnqiSNBS1ZJS093hZT++PFvfYv3lC6CYT+qr7OSmJ7CxslJU196gYj5uHRUUEzfhCb4okpgVEn3mzz96tVUYGz+8eP81Ku5i1yxczPTgCl3XUK8dzD5sWb7zZ3827lFT1v6v4KlbjaDkJ73+PlYZHGOZjxzgY9gbHmUn6uMmKXv8PLXjD5odILO09ittb/Fy9Lm6exQXGi1vcWainqkrrjW2t9VX2plbnfMtZyDiZGzj2vujSiqp6XjvZaKiomygU/IjE3a1dGpi2vfjDfYuZnm2s5tbm+ch3GSioKhinPQjEbnjS+1rKLvwpN3ZFBxeYJ5eXqQgnTJikidlY3gk0LWnGHtpVu2s7DYwKfNw7jS1djy5dhhYmVdZnB5cmyQe2Z5gYqFhYV8h5PAezS9fj6KkJeRkJDQhDWxi2SNlqDAi1XUhze+jVmoknyQmqXJkVaVnaSomYrKmGS0noamq7GlrbbhoV7KqIXMrY7Sr4uxuL7trGnjtojCvrvuu4XW2d3a3eHt28jx3sqq8ihUAABjlElEQVR42uzBAQEAAACAkP6v7ggCAAAAAAAAAAAAAAAAAAAAAAAAAAAAAAAAAAAAAAAAAAAAAAAAAAAAAAAAAAAAAAAAAAAAAAAAAAAAAIDZtVMchKEoDKOPp6ipokkF5aWpIAFTQYLAMBj2vyIIU5gKxSHO2cSX3P8CAAAAAAAAAAAAAAAAAAAAAAAAAAAAAAAAAAAAAAAAAAAAAAAAAAAAAAD8iVV2VgUA6KdqizrepDLPAgB80+7ji1RMAwB0q/IU3yvbAAAd1il2K12yAHhrWsfPdhZ1AF6t41dbUwgAz4rYQ7KEAPCgqmM/CgLAUz8UBOCTyagZnmxGs8DVsR8KAtBp0izmgzvjZSMil/3jF955D+zd4VPaSBjH8WefeMLV1mqloj1abL1eZ6B4tFOPOlxBPXUO7Tj6//8ztyaQW8CASaOV7PfzgqxMXuFMfrP7PLsB4JlKx9yisytoayr1rgCAP3abJkHT+wjp1jWdLQEAX1RKZoZmRby2pWkdCgD44ZuZo/NG/NXW1OpsSQfghca+mavZEm8da3qrAgDF16qZu/C2EtJWZQoCALfYteFAguQ8AWEKAsADNj9IkFk+aCbHAgDFZtevSJAc9xBqjHN5ARRbo2bS8LGSXtds/hEAKLJ9k0rTv27eD6qsYQHAlLJJqSO+OdSs6MMCUGANk5p3e9JfqoMjFQEgUjKpNcUzW2rRyAsAYypmhE6sRKpKFR0AfnwC4t8URDXGkbwAkFABuZu/xCddAgQAko7gpRFrll8JEACYUjPZeLUXhAABgCktY1FGpwYCAPe+iXDki/hEM3spAFBMYQ8WfVjzvGUfCADkVALxrAjyr044PVXrpFrtqTs47bETHYAn3pghjjOZaVUdV5vXZ8G1TYtBEAT9TTu4vhlc2kE/2BhcnqijKwBQSBVjqKKnbcMKQmcX/YnB94voOuA0XgAe+IEAKYtP1LERzHZJDR2AB44IkPSnKdqVq5mqzr1tAYBiKhMg6V8IcjknQHqUQAB4gBmIpH8lYTWIbfTdwbAm4tz6VgCgoKiB3NWxxnqjqOifa+8izIwrO4hDRTV2KABQUGGAcB5vykbeszA0Rls/qvEgWtvaZAULgBdMZi3xSneqDUunnIffX+W9grUcWMsCAI9L04zbW9mzn+9WVuzVHXz9aCaIZ7Y0tjnWbDX5/UnePVgECIBHqeOGx8G2fVIdvDN/7wTWk+Fg54kxB/a6/XnFuXlfPNN2tqKHQXGukeSZSf215IEAudWzpRuvBMDP4rZhfYyKwDt/DqvBnz5NDL46N3+T3CzfWJPH7lhHToa1jklhJ9b33A9SzB4grUq5XC6V7EelIUWzFP4XfhEAP8vY+0CCOfbu5ySTBXkQrGrM7baa7M4a5F5CzxYgjaNOzThqnaOFD5FXa+vriQGy9sf75wLgIbkPmWjqkeyeDuNdkAB5XR9fq+rrhGo0Mcn9GJMsAbJ76zn9pRxj/+G9fxFYCQES/Uy/rQuAh/PF/O/z7PzYvqcSyIIEiDMFGTg7zqdq6/lNQJ4vh54G1tNofMf4aJoEzQWOkN/D33cpIUCehX++EPzH3r0vJY5EcQDuTiMCAQQXqhC5e0EBFSxGVNzyQu2UtTszj7NPsw+7CYFwyAWSeDokzPn+yoyuW6ssP7vP6dOEhOeMr2TEUutptHjIaA8LT+BT3xmeuATIagnyC0aFNVbwFiAJYcM8eOjzDfqxncN/JXTnLgGy/CghJDzwRhDVjIqOliYt46FjxsoL+FTM7fS4BAgb2jeroB9C84rYghUoQBoTvsUEcfsxTGCNAQLEuj4hhIRowk0dY6dKvV0cCTEfjL0tFXsHq5qYE7ri/DHiVdC2S7kcltYRW7CCBMhNjW/Vj9Mh0MJaMUiTcw6QY8v35yrHCCGyPfCVFih1QM9C18HewToQkOzTDmnT9Mv3SoGGXWtzL+Ih9AABcsa9qMWmEnJ1Kq4sr5eCY4BULa+fajZ7wQghsvW56QQ2W1nbs0boPVjhBgjG+YyZy5FBcLwQ8S50hwBByQ/cLmyJqvPOKsv3o7jWYrCMk8L8Yxdsqaj/k7ShRYhsKWsVfcCtrE1YY4Yi1ACpYwRI/cNlaIn172YMz6qNF2f9EZ8EEZbyWNblO2GWQI4s2RvxLVFC4g+U0a/BgXNbcT2DPkgx1ABJK6bKl7/K33C14bAqaX+9gm4NENz8iMc0ZeMFkjWrGZdCOyzofsgwm2VLx7JfToQQw9glKVxz5ZDhiGGAsJnrMJPvoC7SZYgWAYJSP1+pIf0WIFPuFGxaaapsA/jxAi1ACAlJz2WvyvRk2dnCOkkQahfWT5wAYW17xxXszJJwj5THAGn0uS/fcApZUgUMglxW6OhYOiEhGLtWy2FtHX0BEu45kLyywr5g2rSc+bCfDflkqDwGyJ/cCznzMKVJGgvTYFtf1MhLSAh6rv26sLsXfQEiNUCGM0kBwvK2U+fwdDrKDBOnAJFwuST2D1ICY3l6GWjoCbXxEhKK1Hoblso11vOF98gtWHIDZKgon3UGzdwDpFxmPtQd5l6ZkfIX/gKEHXna3Otzr6QtJbEkwHMxUDduNQnafzXUz0uIPOb2uWqdWWL/yxrmFBNZATK0tUJ128pKei0QPn3Orfo0N6x+WZuwXvHuIQSQO3ij3stbEEVYR79gTnql0kMqlTorlW6cQwjGToHKIYRI9MANt3Cx4bwsSTFs+AEyVOaa3WUBvdxU1nwOzXCZtv1OPnwDJXOnQSaYLbwmCQsQrIk0yApbyt+NUmrS51DtMPXQ2PQVqaBOiFSTDcNM7o3CiLT3nAMd5ibDUFloDhlj01lTcVA20qXbXPzRZ0Pwq5kXcJDJP0hDTIL9BrAXVZDCxgaq3vuhWxj+eeP2FaklixC5GjVbw9V6a1YL9wyhTENl5a1eVtxUptrnNn1PXz//9w/Nq7HiMP0Quu/a03+7uJ53wn1AHymAqCoMRWbXOPvGN+mnem75odnBT4WQ38UDPPJx6zDIRNYGFrqh4lk+r2h8JkhSbIC/HedJgwdTY5FTcEuQ3rjGt5qUHL4erUAIkW3sNsxkYBxPj3TfDjBVgirHN0DOOBDzgSbwHR/GB/fmsET5QUjoGt/sw0xAplxzTS0Gh5fZmxJUN7YBYr677sNhwoJ9y6mR4t5NerAHmg6lExKGm9V+1bO9CWsQ0d9XHZSVYN7iuwKZh/9e9WGJwvolvX7UUmsJQvlBSAjG1mEmsK4ekw2subbMHaxIBggPjEVRYS0/GhP/udiDCUL5QYh8pdUwE9sgk7vonjuzqwdJkPauD69sIGGMCfJkfmQFkB83fe5EVdXMtac7F4/OGSFEuho4NWgdZIJ3D2EIuk3/+VH/PQMkgidBtvYHqJmTkdEaGLPqDiH7bMI5f4RzS0BZPUY7WJq04lOzu/Pj8xizzOI8zaTqbcbw431LLJ3wDSYN538LIUSKlDnM5ImbXowlScx+pysr/qSZZ+dJndCdJp2Ef5AwSIBIm0wTUFUkq1vbyzqZkQBO/F54kiuKK0YIkUBshTlvRKqu4s+MaeJbRN+HALkUQpznXPPDiI+WWHPC/SXIRVYLfUYIkWCPAqSi+PNRpwDZrYTQZS825MdLS1iccD8JkjjdzU+HkN/C/gRIWvErH+sAeec87kfRj4XhNOFS/xjcCeDuPvOoqgMfx1yqSWHIUhmEEAn2J0Aqbq1WFbePfMQ6QOLfhaUd1rC9v59x4EWYWvePHe7RGCYUTVUkxCq/xBgFyKZxWGWjUN51nu4+9FNEN0WkiN7jgUSpNbt6aU3fG1j9uBdLd9cd7sM72CObO47Ji5iQUOBc9K1L6o6N/8uSjo5YLMwUu88pW6rnFQsJ99CGi1uo83fZ20wmc8vBw+2LGt1xvIn5S+8U3JJp6tyZ8aEGPik5T6hs6OFOSJR18QJkLhGnpYaLj20LjHRTWbOzewSxHMJiwbP+dvvU6WSMEzydzpPQtDLG7/F397dRvRa9kBWrLtuJQ360rrlv/Qa4aeQgxwghTvXiKcOwBwEydckP96PqO7vJHEvKcoW9ZjQSi4eW5UGNYBOWIXeeZAsPDvnx3PnSwOGDSyqfE+IWIGmGIc4BUk+nf+bzs7aHYx7DILMUoYhUP+xvt7wjtohgDd2mUbPnx0u8+wQIiaA3vACJeRG94uuUR8X2ST/TaR/bWMj9V9WE3VHAGwlbYqNRNEsgrhNMnsVcS92rkfWE7Ea9PWRA3nkPZlqnADG9+Tgq0q7MdhEgB8IuGfBO9BOxEbzsZcKiqcdNmUV+DPZh3hchO6aPKi87Bkh+bY+/XacA2Vgf/1BcVHYRIMUvBsg7h2+5S6OXEXwwZGLw1jrmS4Ov5wfvM0LIIj80lfoiJ/IVxdR+m7KFYVP7Y50CZFMizCIVIElhdxrwJMi1MLQy+vgo8GB4jOApENf/ms4i+PT8oCUIIf+zd2/NbeJQHMAFAlonBoynniG4lDj1Lb06nl7SODuTOi956ff/OmuMwccgMGAJQzi/p502k029O/pXOkdHPPJjkw6rzT8v1nKMvQC7kpGLAZIxKXGRGiDnKKJrlKFkI+8XuNGA/lDft7qdYE001UzbgFzQ6EV+flsQZzLFNwpRC7mj/fsVhsesFy8IGZR8I0k9qtZtkHaxOVed9AA5gyFlKPvuUnLQICyO1O5v5n54dqc9h7EB+Ua3ltIWj4lf+tzyP+suQahtcj3Vau+/aNToy3GtChDqG6ohjfqcEn2v0bv21xIAg6V2PVh0Z2gmbrUsqe/uRionudXqN2IzjZAI/wS/891sqQEyICxP9QsQNdaUpZRsfF1S340E7d8Kq9stwjkN6STwObYBuZdO9okEhidXqxBqLEPO8OoGPPEKEHaMDuoUIA5Y1MB1zpM6Xy+lmMv4dbxPpA7GdKdPAl9jSXglne5v/F+mEYRaZyDnU/4IS2lg+fxYG+9KQBtvWXOdMCjMAOmRIn6wkyI9V36QWpj0aWAc30vdXO9+4tP9jG13hlhFRy3kjuT8vBVpU4AsjBfb9vIWQf7JZwmQHu2b2QNkYKCU7X1lV54fqK9uG5ANp7ctbCvxE6xbbhuQqGFZ3xbsJw0ZK40QZ+46f37MSKsCJDQbyDGeSxJSk3j0TMTp+euXyfj1+IecGiBm3zq+BbkGC2+stn5Xtw3IjjmZJoLwO68KCGg4s9QG/a+MEG8zT2bjNF62+QHCuOHxkqOaZBubYViC29Z6aU/iqcwAsdgv96UlyKfUfl3YhFW/DUjMx8ON1J3ExX8EIURcj/8r368sQFbHG7EWcsI/IlyP7ozZAUL2Ugq9PRAsSf8dVju+sGroF/Vqwcr6U9zuusa4wImKCG08i92AEKeBVwhzHE8N0lp4Ob/HlZ0fEUsnkDmNB4gGAiTZsGQduQtyGz/7Sf7ie6FTTBydw+NYSw5DTPYIQmgl57UmrcXKh1GHhFY287KIaD0K9HUSCq5GJwIkuJ6tkz3dojQ7Qf7GNxvQn4P1+BcRyOz29dOf593dh+QEXwVBiLkBWdu2x28L8gqwU3b0NPNrSIsXGeD3mkqh/IhK6Y46ZE7f1cIvs5QoP/qUHkuQN8xyByyMVPGUrdn1E/LkQYoce7BEJyZCjZCsgKyDGbwrw3s119BXna1ZVddlKtmvhflhjcNomBOiWBTQ2O+D9HvRqnw0QT69TzRcMVuz3ousoPs/afkEeRefCclJbWs+CFVmkV4qd1/kmBlpHHcxGIFV/eVpxXELIqBiVDw/wFZkolGaHiDAcJM18zA/ppkJ8hde+bhJDjJZVvDX8SE8pSsfIJc85vBigCC095K17g0SD/E1i7sYyQlrY1XBFkT0bg3kB9hLQN3Dmea9PoW0KFB64Hux/IaXzhmDTCq4AmJ2iySIspOYpPjI7Rr6wTxFU9nRCUItMut0DC8zIl4qvFLNnWt4MttgxaWMvnOOCkhszTf79NB04pAdOHccBA2onGQnyIfPMC0AkCk/hXZgFUyQKCPjAXLBtQkrqvpoTexMR+gkz57MYB+pkHQ6jTnF2sUHpwiZ1WsDkljxdY3CGodOUswtCgVjUI4kyLv4eVVyRO9XItg+QU4OEIkXDBDUXrbM8i/PtF7PFjmbg5POWs7kPZECVp6cpeomXtZ6HyWDZZIsutqlEU1P+47Qm3jFHNbVxR9gxRKkfIDcXm1wa8LCAEEtxgwQj8Stqp8OyMWzfJTtipk4Kb5eNGeu9hPqmzoEOBIhVnomQb/iPbuwKVZ4BT2RIMUDRAwMENReds7XPtZNDBDX5jsbMse3q3KSid5nLvbzLu0rJA9nSn2TrF0NFH/+HDbFVvYO4T5BahIgvzFAUGvZOadd2Q0MEHfEd7rwQAYEzy7OxekyZyiaE5LXvLu9NgJp4BGmmDesYSa3UVPsb1IJkCCFurDeSWK8xS4s1FqvOEDcEd9eqYVcjiduEq/ZPfXvvHq8VDLOWJ3fwmEmsZ6mCi9EgATJpaIAQah9mMEweA0B4o447xJgAV34+4059UAT7hGKqvYU55RvSI/K8QNrHAxpqQSRxMBZWKi97JzNp80rotsy5zcWwYMp9bkMotKtoZ7zK7ta5qN5ZnSMLyhAVMpTsQR5LwkhcngLQvVm53vre9G4AHnmf2EDJojRGWXlkVfZNBMLlCxyLt3DiX7kcKhHmhEgxRLkjSQEQai9Zp3Ok2HYR86w7KYFSEcOcXwmK0oQb+GH6jotPgx3tq4oPwgBrVj5l27LyWrrGpOmBEjXIfm9lRi+3V883EnHPVxd3H6RoCrGDyPUDNmHLk/xK4QDw1h0OisiCPVp1bzwHprlSxBYMgEjtuAUY3dbgakoP4g+pFtqsaVb1QkEG7CmpCkB0jVJAb+kmORsr9urh3sp9GX5/fHm8LYLPmmLEIudVVWeyYeE30A/OUAMuTCb5E2Q0T44V0+2DI2eZ2GEDarJD3DuVGzpHiokxjpyLAQK2H2NqeIAKZYf5JOUdB8Ew30QGNd04+7Cv+Vyc/ud+paX0sblkvr+4HMgCLE8ZfQlLbzK7sZxChDXE3Xjb5MgLy6BUm/wG9XkByFKvuVUV5RJ9EYhY88y2X0bPTsBzn9XTu8XyQ9T1cjOZynhCw1c/9kERuThfpMlobvHxzsauJWSPoTxOz7rh4LQOa1S5wzOXpKTTkQLAqSyCnqRp59mz+TQOnUTs6gmPwjpF6gHOJN9hkxhVsyjVbnmAVIgP5ze1N+ezUngh5REi7iUEn6GPxXd8FvcEGqjFzlh9GwYzyNWvVm0IECq3YCU7ba100/BZsK3anAHMsn99RqriWkYHoTVPEDy50f0qO+YBD5KSVe0gIwSyJwGulOCUPt05NyE1c55BchC3qpmcq4NZ4idxbDwx6WAq3ixEyx/GyOwiH6yAvuPcZSTJPBBSlrS/L5LSb/i/zKNINRCNs+G17JMbWt3522LFDeSy3FJCYNqPpmjl8ed7LlQqn8RPYoLfQwTBB6EWfUOkCL1D4WGdBL4KSU8UujhHpRC7i7ul4e/KyWBFA+oBKEWMs4/2okQhceitJID1bxfbpQIEF1Rx35MBjRtPFFO3YCoGVWPPg0Nx2YYO126ZcU/e6fOAVKsfg6eywr8lRIuqS9svwLNWEE/783jXfT79CJtFC+cxYtVENRGHTlTRec0XAJkIcsVnmEZBQNIn1t9ytAfz0kZSnbvlDKlh4a9w+7fSewaiFXjAMmZH/APNLR6TlYj7w31Lb/9ARdAbm6vLr6B6yDLy0c4gxj6CP67jv0o7xKE2mfmcb2zfdYAGcgb4vqwYhaFqvC9KU3XtUpkyDRrA6JbNEkzYYJ0nXgU1TZA8uUH/LBBV1TaGdY1qG4wwVdQEj7Eur6sMUGoddyR6JOeCgNkJMsVFkE6+QPEGXfpEUNVJ4U4Kas+yIikCfywtdgWpEdSqMeIPv4H+VHS37Q2LAnK90UVPeKLUP2NuE/9OGMRXZarHJv7P3vn/tU0EsXxSWYyLUtiHiCPtDyEtlSwgh5egvhcOairR///f2ZJ06a3ycwkqUla0/v5CQt293T35MPce+d7d1Yi1P7xXZoF0/VJDrqKupNDZbjR34XG6C/4GJEzuz/ENSy4z0QJDdjGa+gIUkDRZ6/sQd7ZH2QweGWhFpgn9cG5azzS4zyukDynEE/euXVgf4U9YvRiBgn/3Ir1432yqDjAH7NxpUHgRkUVLyVBJicEQZCjBVqR9OcCWdEjyojknQ3DpICewSwC8PsGpwCzn1VLfaCAGH06AiwdtKJ/jw7YieuQEZ3RHxcWR+SP2QMV4U53Fdc04C0uI0SQlEbwp0U4gtRNILaX3im3+i6dwH25NBhzDMMNcg3HGIqF6Z5NIFaPhvSHXpv2jx3qLV+XqtKr6Y5N/oyTTOUpcWYv7pJCELVBnu0cbelCnj6d+KO8JkgtBdIFYnCIHMtppR9CDJrEJtJsdtciRB6aaJnTf781/A5j1qIKZEYsl0uXgpzSR/Y1FTc0QHoJxOCLW/VDkCo4G1liJ3gCbwn0sULI56r8US+BWKDzYGfPqaKdzAIx5QUslyRxwLeM6X+USyM8zjuG0Wd2DQTSNaPC3G5bHGZyoAGEjnkl24buB5+gRRBkiTmDD9Db6QzFrQ+34c9U5I9aCWRSvuIsV04V5VZGgfSk99M9lYP8cYgsbSnmtvhfLxDWgmvjzzPWpyDiIJMGPOuZXYIgS0wsfHxLdD/7aK8SfxAWYFc1ElDqFJZt5muMw4a7Z2UTSJck6KsS3uGd895UDcuun0B8TkMMySTvKuiQi1kV99kPpz8Rb3E/AwQpnx9HBPBEeDni6FkV/ih2PW/J90Ay+qNnkcz4Hg1p2QqBcM4Nw2CM5bqfDu+cj88cQEGpAvENIQvbBLDpGBMcQQRhJpqc58IgkxNw1gvBQwiCCAQC2Cl5/qoIPulx3uki3pUfVD/2h+mQXHTA0taZFnKkpJLwaBDLn26VcDqmLvHkXryAeCwMM9lODTJ5IYnB8ns0xMQ+CIKMeFLir+Ul8wAl8Wvj9z39qetf1iil95u6/m/0BX2/tvHtS5mrFm1z1vCN/ngI15pJIAxoQUR/0js3Y5awGOsbQViwVw+BsITBz3OGmYh/4IJEMA+D3BFE0oomfxsf9DGBJYasbdDRF99pyO/RFz9LDBr2gQUEaCPaKvd4Vj6BwB/qp44pRC1gIoLXQSDDyTLDgnkm7cxhJvCIIhzBAuH4LYIgSBECseeaSXqkA2gKm+UNYVkecIAAbYzy9NKbRSAdsEdJANSGSwNqLBDf7Plkiqa4xaEOMnktHMECG7r6BEGQAgRim9Qlc2RPn7BG1bwrLyTSVftjXRujrn8ZMwiEq4OMoTaMuguE+CTGbls5ZJVpTGtAYizsGAGCzAN9xNZMlf+5GgQ2Qb5SJffltUC6wB9qgQzUBmEzCoQTOcYSCSTJoSjMJFeQyR1BEKQMbHPSwXVA+9j1qppSOdMn/KQR0WHkP/Da1ELCIvHhvia1QNbVI6gtazaBeOkCiVgWgTgdEtAQXzQXc5O8qt7eHb7ZXCu1CFJHYPfXAQNILqVVGWRHn7AZnTU2g0ks+EXAhj7hBykSnoypmhZFUykQeDG8U3wJq7ecAnFGv9gMUgyR5pfL4ZvN95yNIDUk5o/IIC6l1RnkAczxhvbYCKetfm1EX4QO+VVWBctJ3i071C52hQL5SACXg2Qbhc3WRPdTbke0lk0gTnQ0biprVGkVrkb4ZnOu1CJI7Yj5IyriuJRWaBBYw3o/LFrpCcLB3n9LqmCNYm55rPB+MrHD8blwrcSd1gYGsVo0gOcVSDdljNeiAXzJBAJTJC+UXXL1wpD2cfhmaBAEKRSBP6gb+qNSg+zFx7B0AHy9rBksY+zOWOO2vU4CBncnGuDi4zEZsnsV/MwgET3lJKNMWsONhg5jfq6LhPBRaiyXQOD/kGSgnNNVT/l+DN8NDYIghaLwR7UG+Sw+aUDex3roz0iBWGa8gHUIEjAOG1qCq/XAHxdaADSIG9pCGaZokQSm+iIIz3KMsb1aCST2xG8qbgqq7xleEYIGQZDCUfijYoPc6hHfaMA3PQL2Rr7qEWekQIz4Y/8QPH8uNCGN40Fb04BBoIocqUDEInAzhSkmsRnrDve0m3XJwhrjx5/3DWVWifyb7d2JkRZ9BTCC/D2k+cOs0CBPYZgJnLaC01nw5U+kQCwz9mC/1DLQDvwBDQJdpBKIIVMEtVUBgx3R4HDtwhRjJxBXdJ3wDQ14qQgyORVlmDh4AkGQokjzh2NXaBBwBAH3PRI99M1yVoF0waMXxC/loJ2QUc6FUlzxUbtUNqTVrbFAiBN72q+L2xwpae9N+I7oDwQphlR/EFKlQR70McNrg+/1GF+ng0z2dkiBtBJDUAMtH4fxcpgLt20ZhsE5V660ZeCjVt8ugbh1FghxYk/7pjLMRPy9BoE46A8EKYIM/qjUILdiVci0cpY3H5ylLjFqxdIz8nCeGLkVN8RZT1qp6sk+6o5ie4VZa4EQm0yxeyLaWasOMjmOvyOCIH+O5aX5o2KDPBUXq8SFrU+kSIF0RPvpmlp2rgTHAkdR2O/I+zDU7Is3vDLV+j6T855hdBmr9wMysvoreZjJaxpwEJkdQZASsDy1P6o2yM4eaJeDvR/C1vpKoQJpCY8M51pWLnYF2596ihuBLeU2XT5RiO+CxnuSzpJtZo366Dc0QB5ksj/JvUQQpAwsT+WP6g3yQTSwKx7ufSBFCsQGD/xYwSQT7WOhkFQDVUx8Ohljul3GmNPx6BiXiDBpQOn/ZRaH80SdSh1kckEQBCkHy5X7Yx4GeZa8Mii+Xrh3W6hAuuD3eFUf/WD1n0eST611cWubERFdhQ+YSSV0FPWwHlkexuPV1zTgbWqQSZMgCFIeEn/MxSBHotAS0WsfSKEC6YmHZGPXz59v0xGvYw65E28wNxQ1LOrL7pKLMB0ihC/dvbjdqTCTNxoEquV55HYEQUpD4o85GeSJPuS7IMzkHkQsbpGMODxgNC3AAxxpIaiVXP8BeblNATcHGuRYHn2Y9865QZNwX30/fZm4iBeq1EEmBEGQ0pD4Y24G2QL9jl+CIJOcV0AMGseQnglc5QHkep9O8eqF8gjiKZ7sDAzlCvBdM6YPpg7IMsgycS4NMxF9o0EQBCkLiT/mZ5CdPUFqSfylFVKsQJiwBXKcvJwG2YcGaYtPGZbque8SGZbTmwRbdf2U0hxdrt3eTWmYCRzwPcUhXgQpm4z+gAYx3XIvGqxIwkx+Tu6GPCEFC6Qr7JF8hPWrfZrg9CC+8E68AyR77BXEYgE2UdFaxmSncWHxLQ24lgSZ3GAPHUHKxsngD2iQkFanTIdsRbfO75NBJl+GBayiBRL+lK+oYG3TIftvVg8Orl/TkH8UNSym/DB5ITfGjSU7gDA6K4wgCFI8Tro/oEAivG5pj60f+iO/E2Ema1GQyWdCSLFN9Ol144P1y2bzrgH9sTp95nhxSuP1kwvhw85Qf5R/5mGbLlkHBAWCIAuGk8sfEM8pqR2yJwgzgUWtI/JIoWO8fKrj3dAS3MRqVgevErcQGnfN5uX6+i4ZoZrjbRXy6Pfokl0iRIEgyKLh5PQHpFfKBYQHEGYSCzL5PgzBKkcgXCGQxIFjlYJOLaSRQSBeMXvxCnqbivmfvbPpbdsIwjDV2d0EyW75EcMpSMMIIpJgbCRtAztOghhFDil66KG/pr+il577ZxtaJD0klxS/paXmORlxLFuUvY92Z/iOzxA2CYQgjKe7P7wYSkg3saYmDTT5Vg0z+asIMvljeYE8r0/g3h1i7ROIsDS4E/WzTbSRWRgOJaTgNgmEIAymhz+UpRwPSsiJS+ri7xffgZTfXhT8Dil/fv/oP2EvLZCPqOGnPYqpXSB4BQ1Sf0yTxz/LPnAuONQIOh6G+pxzF1IE78dsBTuCOHl6+SPFjyoOCab8C53h/eQggbTb4k0ngbiNjW9yCuuyCR9rKXhbUst+mIGbLoJYMT39scMO0/OTWdqyDiUQ2UsgXzoJhDdey2lO/nIbTXXtF4CDFuGTQAjCPHr5A8OqiRvxNG1ZMwik2zXYVwP5Uh9a9K4ukPaFzp/41GmqespycNAjbRIIQZiGAzvirv7AJC6UiSd4Y30AgXBIsRsF8q7Wc/X6FRpapBNIov1J1eSdUzEYFuiezYvnO1wPChwSCEGYRu4At7M/MMqptWUx8wTilB72/sm1Nl4JPlYPtT43CQQ7CRNrh5aruMczml1JM1PNePGj4jCUkUAIwjSQQQaFKKq8pD5l0gmbxxTdV6Wrsw+4CFKJT3wDaOYE5va+pIra/Nkdfu0Sh6qz7Pi8h2JzowkJi2R+ikVtvARhGsggA0N4fR5UHBL5Uyzpi/3da4+BLvCJFU6/ev0pS3TfPHJd3IWOcg69Llcz2Q0jSawu2KL2OtlmLZK6lEnfgwc8EghBGIeLquA9/YHbsqZMOllYIJ5uoNRNZQuS8ur9s2efIQPfGPJVN2Ek7uDjCE392Ifval4Nt5h5awRIIPWDOE4CIQjDYAIKXDZ8CEgyTVtWJf5Qw/gTsiquLtZ2W5lSVOVTy0jCpJgwsscgLjwikr362BHY+Ec3qwjC27oLpCKBEIRJ+AJKhKrVH+04EySdHGI5iLRlhAvcdvUzIGrJJrdNy2S7QZToekemcvB/lcxUfzRdGSUhhZNAiNWhEn70+NYwmIQKnj3QH3ihww6xj18gtnYRvt8gXn9u2X9sttqgw31dCbYHNTzO6l8TxVDBMdQfjWp19o93t4utaSCaWGrPShBd4RKOH2YNwtHe0jXYHw1JJ6F/5AKxpK4IcrUp8eZXNBH9+QZzrR2yLqx2gxQJxy6XgAnx1QyFBA2umf5o3puJnRipjZdYFcoDE2CD4/h2SCEgJ1Dt/tiPXympS//IBRJrb9t4uqko5POrB3u8r0aYbLVejtovenGJIlTfqJknghLCyb8sVib6o1kgzu6pkECIVSHACNjAQHAcqGsX7VgD/YGxXYn2NMe+A9Gv+HebbjzRF+XtZm0jZLJzLr5eTdEfMUPvaDwT/YEEot8FkkCINeGAGbARuUSeb2WwzChstD9SHDAmLdbX3Ydwv+nI9WXbWthuEGlr7sjUCASdBObiMNEfSCD6XaAigRArIgAz6CkQ3PkiVO3AzpvCH8ozxh951dtvbONt5/ZS08Tr7j86xFcY53rU00+CMLEKuLn+QAJp+AwJhFgPNqRIU3Ii+uFoJhvZ8MCp+cOKamdYZ5se3GhOsJIOxSdXNeQ6FghdDcmRpvoDaULvBkZdWMR6YEblDPUk1j05fhz+WHoh8KFy6vT2YtOHp7UeLNmhfSFsEBnTD7vCX26oP/YLhO4DIdYDX/Pvn/ak3j8Kf1iLLwRe+Rtc3m76sdX2E7UbxOmwikp9Q7DvmekPEghxSqxZIEq/BHnH4I/lBYJWfSSQHlxVruC+Z24HduMiGelzHjEqNtIfJBDilFizQLJ65BxD7kb7Y3mBKHhAaQxyd9urCsLQaVhv7OqL0lw0difzhyNSrEUggRAnxAkKhMMD0UH9sbxALBdfDmyQr5a1vdZ2755tLzRVdHfA9WsUht/SdTRZRYhDirUIo4roBVREJ4zgBAUi4IHgoP5YvIiONg5lg1x8sFK2tV3I3QdUar+pFpGkmmY0ySJtq4YIhCBMY80CaTheD2CHfUh/HAIPUpyyQS7eFslYX68f9x532ytsmZvaTsYd1dkgll1VSSAEMQvlX3eR8s+PJvJL01oFquGg2T0xf+S3xVjYIKU7BG90LVeXd4U/cBebPyo6J+A57hKrKgmEIGah/OsOKec/mMhPVhWmnwInIEOemD/yvZeDDXKpz1Y8sxD3N/VSipg2e23mVZUEQhCzsFqBoDlSdkP2VzKVP5LQA2UdP2gLgtALpAl/7IofQ5kl1nYSCEHMwkoFUkoPl7Y+OzKewh+Mi8xGx4+S7f1T24YBtlNuQCxOAtkxRTfWSiMkCGNYpUBUZX6RjPJPhNk/ZNWR8f6wH2ckGQBva6DC6Vh7buMAZpFA5hMIgw4s0b1GECcoEEdClSBkjCXFRIrIhRRntD8sK39IzzKBAFL4cIEISBGjUx0LRj8eCYQgDsb6BJIEUBD6Hmhwsz9Rb7w/iiN9I4ogltPaQnWFJtjqSeCBg/UPMC4E9EAnEFgCEghxEhxQIOcZ375//PJcz8u+AmECecLXD+x1i7fi/mh/5G+oBTdCIJbX+o7/aca2ccLjIRMO2W4HSQIhgRDHwgEFAhkvU5mAnvN+AvFjKBCsyOTLwNWKEFL4aH9YPoAXmlBB38FgTH5/mA+APwC2AIDTEAgV0QlTWJNAVIiKHklDSSRgeDxGL3/o14bEjK1HTjwiiIQd7m1v+tqejEAIwhTWIxDUelWZsKgcDzLipDIeo78/ILZMxpfDW5iDzLrL43tAAiGIo2M1Avk3eNRHvR6hmMN5wurjMXr6w5hbPpqJBh9ihaNbeIdiSyjwRA90AhHzEpBAiP/ZO5futI0oAEsaJDCG8DAGGxyCbbDxm9gJfjS24zh27LxzTpOe9uR01TS/oNuuuui+7aKL/tdqQMgXkBSNNKMH3G8VTPwS1nzMvXfunR4mRCCV1zB37n48RobNH777+EaBosdERiK0Ay93/ii0s1NQxosgcSFEgfDj+Rwx0apsA9PZ8ueZCdiC5Ii3GuZM357Bp3yyNfOtwXScA0GQuDABArm6HSq9ckubUNbY6q/UCciCSC1PWwkttACWZlz9xLQcJESQuBB7gZyVz8mAWp55MAXJsvjDeBuekeKN5iGXo4YWwDJ8V6xKKBAEiRZxF8jbO31kVC8jXlts5z8K4Z7E5kM2w1zLWw2tYUs243+EPQoEQYQQb4G8vyYmatZTLqDI5A8pPxGLQJv5QIcW2gwUlcN3RoEgiBACEggxoP+eI9ZUWL9oBXyl29+9dhasuvVHcCO8xWOsyqwbkDAOPoMW9F6pBjL2EAWCTB/xFcjVB2IyV1EWvP7uTbf+mCSBSDU2ITRDKx5o+62czhVqZMBaXnwNGQoEmSLiKpCzV8Tkmn4mm0BgOxO2+VFjC2+zFUJcxzd5NiNkCCWMHlgFf1ufhEaGyAhveokCQaaIeAoEll6dvwTdeL1UI7VZ+ie2xhYB+nQhH8bayiEyJLkjF8jUDkt8lb1l18gYNcGneFAgyBQRS4G8vL7TR/lM8SIQ2M7EnT/g8cPqeOvtouB1iTdMaQE1tAxI1XiJfHdA0QlmeCQKBJkiAhJI2aC3/JetufLQtuSW6sOzQLKgmtXRHw5RryYhoZ2w859bUCVXaKFFsBI+Uuh5C3+In2cSskAuFyxZlxBEAAEJhB+wbckccM4C9wC7/fzBJuwsFdBYb95kWZIgmZDOgOgkEqq6lvPWsmXAWitRlRLtZi0Ig4QskGXFkhkJQQQQM4HQtiWg9AoABcKlnQnwh9NE2GJcm7zX3EshK3zVFUA1Q/qoVWlAviZ+kl/IAlFQIEiAxEogZ2VQeqXnzn0LBFQXMfhDkyDVfCHTi7LEDI1QEm5oiV50RaCRHsXcSD2y6Knu0RTIUwlBBBBVgVxVKs8d2pac6z8kD4E0CaVl7w+yloVD8Wx8k2tp4lYkEeQ1rUYYKWpx+iXzxLoDSl50T5ZwBXJfseaehCACiKJAzt4aeY7Xr55bll4RvfSKj0BAOxO7+R8ZNdf7n2pGfPgjMFR+c/YiSg36A5IXfKg+XIHMoECQIImeQM5uCWDuuUXbEj13zkkgxjqTs/AHRNMCKuEJiokXSN5+ataa2C1INAVyIyGIACInkPfnZJjyeNsShZ9AWoTStPBHGCWggTHxAlmz3yxmM0KzIOEK5I2i8Lw9ECReAnlJxvgAS6+uK3zvEKt2Jmb+vBD0IbTAmHSBOA4sVoVGIsMVyD2+tweCxEogwB8QWHrF+Q4B7UzG668SNTJETezdHxx5TdP6TUI098Qoid52sn1VaGOWaArkgYQgAoiWQCqmKV6Vy+VB2gO2LeEuENDOxHL+R5GYFIUlXkNBE7mMhozquFYXRY6VDFcgl4oNEoIIIFICObs2qq8q8NggbFvCXyBZMNnW8vxHNd/UdJrx65c4xQIpODYHKIhsHRCuQBZQIEiQREogZcMUViGtD3rplQiBgHYmY/5wphmbgM70CURzVIQqMoseUYFgMyxEBJESyDnwBzCIUXolSCBtQtGY/VEIZcArRyZeIEXJBlXkSh6uQJYV7GWCBEiUBPK+n/4YjlTdGlIRJhAw2ZbJH74HdVtR6qZSyWRSBizpj1OpbkniSTWRSPR+12KCBdHDmLihEUppcDFn0xRZ7l3K0o4qsrlwuAJRUCBIkERJIP0hgyOFVld9qwgUiNHOhNkffA2y2U0ll2QntpKpbl3iw6SX8f5LKCuywSKhbA8e7scxB9J5sO5KINgMCwmQKAlkzpw5BemfITwTJ5AcodSY/JEtEo4G2Vw93JLd8fiUi0QmWSD61VxKE8qR3GeF9HgiGzykjxrJix1JAIIE0tFLcTtuWmFhLxMkQKIkkF4KZM46sy4uBzLoyJ6DUgjQIDunj2U2Dld9O2RiBbJ50buas4SyL/c5Ij0WjYe7hHJCN3Wn/B0iRiAdd9uIGT8CmX+AmXYkUgJ5d8ACofw3+tF/COWvgy/vdH5hEchmyh1/E8pvhhIaf44+X6LUbQzS9rfepbZkLxx2ebzsngVSSolnVWKnezi052ismCErGNI6hvuRrdNNV6+Ta74nlE8Wz3wCz9jh4A/KvGeB3Hxz83KjKGgQJFICOZBZAG8TAUeEMms+/vri88G7j24EUpLdsUsAjW3ZjmTyUaq7c2cQ301du0nZM1upuu+X3bNAUrJ4khIjdSjjE0JJmyErENLabRDK7t13+rarSrJr0uDvdZhZ8Iwddv4YsHzfuRWW5x36d3r9FhoEibNAejf2nrsb8uvnLx95CUQ+gf5wnYbIFv35Y3VL9sejTckrCVVVa0TnYdoNP6p9qtEVSD21NPK2w8ybbxODfZBRXxyy8UU9ygKh/jAN4rDErz9d8CqQ9QeKggZBYi2QRTPOANkjFNmCX3/mJJANt/7YHUpDZP30NrlYkv0DFMKOBtZRt4t5ZAUC9AF3HXv0r+mJ+eoaC7zFOr6UqkdWIJ3hrlYz1juIpzeGAyDQPJdvHFIs+ueiQZB4CyRNKGmr+NKebMkPBx95CERujPnj6OH+xrDKZtOL5AQu3qUwdx936x4KRJK645fziJgGWSQDtg2bWP3eS6sRFUjfH4DOuD0uaQDq29x07tu2YESDIDEXyDbIfI5sS46NR1YK4SCQfeAP8JG9/mNQ+jm8xHlVSCkpc2OrO/UC2Tx0iEs2ZleISXpl8NFdq0tZiqJADH9ALoez351v2QPqYd7CD/OKggZBYi8QEHYAtyPIeFor5A//ApkF/oA/yphjZkcWOS9VoPVTmSuH9ekWyKp1MHBlkDpfBBmuwVZzw+5SRk4gHcudxP27zcc8iFy5YrkzUn6l+wcNgkyAQDbIqEGOQfbTlhc/eRMIVBf0BzwqYHIE4muAFPv2g1P06o6l7hQn0euHthvaBrFj3/ZSXkRMIMP+AMVYA30oHngGFbL+TFHQIMgkCGQQrW6k+wo52oMBB4dNyBe/AjmG/jDzrk/gG1qb0Pljxk0I5+1Hn9OpLePdATp2bZB9x/1clAQC/DG6xgN9+FHIjL6BQYMgkyGQ/9k7l+e2jTOA72IlEqIepCzKDiUaUklZlvjQy3xYsiWLtuwotqzGM0ncetJkMpNJ23Nz6LGdzvTaYzs99G8tlqTAJQ2C+5ELLLH8fifboEEIoPbH3e+xvV/53Gkq5/0lRUfxZEKBHHj+EBfQDwKywcTgqzylOg2FujObAuHLV8OpHDI/ngfP57LTI5CjgGDG0cMVawJeLnjvgAZBDBEIXWR+HBfoKL6fTCA0V/k8Let4YJIitlcSkTdIVUXuri/l6iwK5JwGUzhln8EzI4Kxp0UgR8HxcGsyrp+1w+doEMQcgdCn28yHMzqSfzgTCURAbKU0PAgiUpMN99LwyGdnTyA1ianlCevjeF8qLWEqBHJkhcvW5bVloUEQkwQyZNkhJTHgKBRIYf/k+LPZBmO5VAUUg4g2d6k4awIJ8ocYuxI5lVsRLE2BQML2Rxs0CGKWQCjdP2Ye26nuXxYlyrLVCYRTeV4Y+IfAwVvJ9+XoDOLdodim8Tp1QGbfyeL+YrciVYp8Vb9AXll6QYMgsRQIpU9Pc+1fdl4MXtkWErGCOVcqEBhZ/f5wDTJLAmlCakQrXhbEgaxBtAuEXFt6QYMg8RSIb3EIHU1Dn0Dyjn5/uDdgdgQiez+3B5pg7VNZg2gXiFvhpxUUCGKAQOiJ9Op1vqRNIKPGuxaNgnx1VgRSg6dDVBjnTP5e6hYIebhl6QS3UUdMEEjhkMl+d0zqEwgt6sq/6lfobAikKF8hytkX2pkBbKxbIOSxToMcEQQxQCD0YFtoVRVMUZ9A8o6O+o/JKgqzTJIpE4j8kz1knILYzgxgEN0C0ZmJ9YogiBECEVpzjx7FtQkkoC2WE5k/KK3NgEBKAfczYDOAp8JSqBRlR7dAyKWliWuCIIYIhKak6wltfQIZPgVR2L19NC3zBVIHZmA8F0tCDiHzOe0CIeuWFtxujQhiikDuuiw+lxjFtQmE2loD6B5V0wUC6Ed51k3iFT9FB5D5nHaBEC2pWFvoD8QkgRSk6wltfQIZMgWp0mipGy6QBnSb/ePBHssAitoFoiOZFxN4EbMEQitM2K4wiLI+gQxJxAqpAe9wbHmBpOT4/RQJxMmP1dNMSOSFpbXpFoiOVCxMwEIME4h8PWFDn0DqGjpg+VE1OY23SaUROyiL+0xCSGoXCFmwIuaSIIhhApGuJ2zqEwgt+WQMRZiBdUfSYIE04HskFwY+Q09hSQnaBRJ1Mu86QRDjBFI4ZHK//o4+gbQ0tTAZpGisQJwypIBI3EVSTOSFLWJpF0i0fRV/QxAkXgL58bdD+OHJL3/0VrAl6wkbYIFkfWjZ58n85GtY0UusE843VSCS7ywGzf9Ts7NZ1wKO+1BZN6gOoaZfIFH2VcQEXiR2AvnSCuDnf34E1RPWwIM3GUa1VaYgHCUlIEm7kXXPtJNgLnUvATVHOYyTEoYq7zjrHf8dcZnrPlvvMfeecaJzPCd7QcLHJOF3KYvDL+Un2+U7xvnOdvmGcWzO4PFvxOPF7lslelc9D1wQPGOcNOmxC03k5WSVCoQf815G/R7uvO/DszhrzGXN4vR+Vx8wzgPL5f7AS99gAhYSKjEQiGV9++SjEBNlJzSQsjqBuGRBCihOPAHJ1xpk75Ew2hGn2AQL5M/O1AgkIecyznzfcR+BABcEGWeTCDxinP8C55XxFcgLi/Nh7f4VdlBEwiAWArGsTz8C6glLKgVCSAvwrfd8wglIueikV5cY2+gfSkt/AAokZRspkNIYHXB2iMAG4+xmy7CQUmwF0nnpGz4Xub3ABF5EOTERiPVt2yCFbdYmOAzSUCsQSCvE+kQTkHyLkFXGyQwOpVCB5B0TBQKagDT/wjh7RGSTcZadGuixxFsgr1kbFAiinrgIhBtEtp7QViwQSC05tGZBJOl4D2S3O4aMLRBqGyiQP8Ey4jZ9iuh37qRSlNaHLZORABHI3PAfMxSBvGWcr7CHCaKe2AjE+llIrAke+ZqqBULs8Wr4SmMUkC8vMZcl4pJOcAhnJ+HyK+XkOPvUZT/HqbSjQzmOeLx89//TxCXTO1WCs9M5/6+yAsl0T9W9lJ9OBy6l4n8p/+u+lcSlcDIDx3e84yTB+Tdo2SntqVhgj3FW+acjr04fEIHcS6RH/JiZgTv29zWOxXnH//SuIwjOW8vlao1z1XbFwEtvLZevGKcTBfnaGsEKQRATBWJ9L1tPmFQuEPn2Gdmxc06Lc4+EJ5KeeFvcxhSk8SaJSkogf3QD5o9IP73AejWvTB8QgcwRKCvWZNzeeNOW++zDhRXI1jOCICYK5JNsPWFeuUDI+Vh9qMqQEW+esbnuFGQ3QybuQ0ubxgnEhlV0Jhhng/Sz2/NzQ5k+QhWIgo1tX9++eXsXDXlzhXXoiDJiJBDrl756woBkfvUCqY4jkAbEHzx4vrlMXDIbk28FzimZJpAyqPZvWUjiFcgI85KWKn2EKpAVSxlrjPPWCgSjIIiZAvmhv61iIUKBSA9etfFG+7/dG0g5VbA3VcswgTRgOwnu+d/RjbvIPaepSB9hCkTBBOSOW9bmBqMgiCriJBC+hiVVT1hVL5DmGEMmIPv3r0uszZ66aAytGyaQJgUFolaH3NCOqpcD72aZ62NKBHJpgfli5f0Cn0c8Xrhcf/mZQG4uMBELUUWcBGJ9pB26YZD9oQOIeoGMMWQ2IM0y0m2DrC4r/B5OS0YJxAFGfza9bDa/RN5MwN0s834CUyOQlxaM9fekj2eXvTNc3TD24jXWgiDKiJVAvqQcoZ4wOoEU4UNmDbRkn17qjGoKF7FaRgmkCBKnkMQ7wJyXyMtpKtFHiAJZgHWyWnnod44vrC4XH15cYTteRB2xFMhdSdZxITKBjDHU5mG9c9Obe0o76FKaVHauaRBIE6LjbhKvr5KXxKlJSYk+QhTIOmj28XCYhrxZSHf+EdgcC/spImYLxKsnnGKBSCduLf4rpJGUhvBTaROIA1y5uyck8Q5L5OXUVOgjPIFAQugvFwLO88oSuFgLjIS8IghitEDoGWuTikog8CGzReUoHHdDH6q3EXTvg6pTTYFAGrB51zLj3CM+ZLx+IZySCn2EJ5AjS5rr4OD3+56Krnh3xXcBJiIIYrZAvHrCiARyDk7jTQL27d5MEwB1KoltkEDOYR31M8PTojf63VJToI/wBLKubiPax3cG+foF4zzANSxkYuIqkF49YTR1ILI6sKEhkAoDDystZUGQGAmkDtvTa1W4q8MTeTklBfoITyBbyvzRM8hFRyA3WAqCTEysBEI9hHrCSAQivQJvQ0MgOcbZXA4lHGCOQBxADq8QKfdlvj++XptcH6EJZEGhP3oGecA4a68xDwshMySQT9RDaKt4EoVAGuCwQ1E2AhI4qsxzMmN/G69qFsj/2Tuz5TSWMwB30zNsYjeWxWI8HgFix1BIGIws28d2Od7Kp8pJpSpLJXmA5CIXucgT5CJVeeSoGRj+GZqhW9MjBPR34fLCjAxI/dH9b/LmoV8JnGB5JPGCf8yiBS3/+ghMICne0kHExUXI4gshH3+odiYK/+yTQP6MAaCeMPhuvPzFFy3hM/v/luhixgROzIBEZXXk3R+BRIXeALjJ2JzIKxP5AonFYqnUu5DcKR4LIb3++D3kyTekUByaQP6InfQWYZBO4ALhvlNZWDllhDKlophA8rKi6PsjEN6Xs80Kc0BggEQicgQyl0bq7Ows5EbWer+4s5oKopDDHgnkt9jGXU8Y8ETCSlt85StL6brOFgiS1dJ9fwQi8HJ6J/HCFC2J+BcIK2FX7gEW5UL6HRVHjVMguv6/09MnIWlIFQjjZnEyZ4odvJUtkDEW/shfkbNJ2CCQiKQg9t4IRODlhKUeDKBfJOJfIKnQnXl1x7zgH583nok9TqVexGJquJRiC7r83XxA2Tqwc6p3PWFerkAqI8xNV2xp7nVw/i4CuZbzzPZHIHmBqA8oNmcBy9TlsUuBPEYCvLKrCb/ckBuO8vazMyUTxQEIZOyRxOT8eUVSBZJvY286J/H4tGARDlf1jJbkTcKakME/1197LblJIMXFg6NSntkeCeRcxODeUXIYY5fHLgVyIVqaCAelC4AUir0VCLyVdz3hpUyBXEU8dxDNSYEwSIR/nmAOBqyFrkhKmYVJstbdqkVESeqJ0uKZSWpmsjcCETAmaLjLBGb5ymOHAhEs2vgWmvOZUE6VQBRHIZC3GOBdT3gtSyD581Hba+cx6RMvprMe9sZkrmNhuunQbkUSJjbVJEKNEj3XP06BjITeyurWDUZJdiLvDgXyBlFEi9tfE8ojJRDFEQikMsYAZj3hBC+5EhZIhAX2pDMZkO30myYGsFeUGmteBclqCQLIaZZOEklEOTaBRDAfl+4k3vtK5N2hQC7QnRrEfyW33CiBKA5eIJVoGW/GdNcTguUxKJoFwokx9NiGxFkvfol4kkUUOTlehyeQCBx77kFDdiLv7gTyDAnyYlmNfvPoy3clEMVBC6SVj46xC+96wnHQAjFnAyJC4WTjDmRKReSKgGwRSPgoBSJ0YQZs7DwTeUtIGrsTiF2yIVgK8uE1/VUJRCFBIDUtGP6A+ShHmFxiLl6SOX2T/j7+13A4nK2lAxNI0yBrDCYncUIpZupCCsHnSW3tLYFnV3VdD5MVpQZSAvEgwpPESwlLTuTdnUBSSJTQAiUQhW90EiRxfC8s6wl7Q2MVNMgEIpCTAUMfTfv/QLcQtgAAw55AkCKZtZ/EfIWzoyEJPYksIkogmy9McOwuaotdiiz2SSDPlEAUsjgIgeACYZD7N5ZNb8qIcszAuoEoxTrrUSJRbi1nPYOFL9KWQeq3OlEC2XphYxUrur9E3t0JJIYWyO6HpQSi2E6NBMl9CcRkRyWaWC4zYyWE5Vfs9zAUiEUmQSyA2Qo9PoGARNSGu/BNCWRTPY59IXjtPCkRCgw+ZY5MIE8oH5RAFH7QSJDcl0BwhwRvEHMKDq2WX3BoYoZAUNpY6mW4ck6TXyBhQnF9XtaVQDYwJIOZubyw5Eri5VK0VickeVwCIZRTJRCFEgitJ7TJhRNBGKQzACYwDdc0q/bvnUv+8tFDTBUCbAPZnG4adv3LSiAqiL5Oz0qY7tALYRIvbyJvsjaXjq4EogSiEEN7EFlY/okTi3ADwUC20cOSWBkqfquBgssf5a7uFAjuLBTz8lY9BQLOu9wTscI8OxAlEC8mxGIw+zt/eNxO5G3UiUUiuY8CuWsQ/YMSiMI/2oOoA/FNb7EENOxMpvpyiZfDxBHKiK/5A7kEArp0weCJ0VmL/ef4YyBKIExMA2w/a7wJunVCyWQTxEY/DoEsQiBKIAr/HIhAhoRi/M3ZrYIiZwtiH0PNQMSlb6784RbIqjylMBdcgRUIsf5SIAtLCYTFiUHclO6UPpLdR4HctZDwB6E8UQJRKIGYZM5/GMdAE+wfc+mPfsde+MHx2GUXrQmkvdqnvMSUGSMsE2dXvBW31oFUjq0X1pb3pzkgThLZmuf3dLGh59b0UdzLGMhdW5mE3v84/fXReyUQhRLIS0L5U8XVFp0ywP4pEIupaYdDgAnGFbQukAgQjQkbz0ODNI3Cz0Z6WyV6zlGJfpzdeLd/BzAqdEphXdc0pxY0LaPXw4zH1pJ7Wgci3kxRVaIrpHEYApkwU//rks6whs6cMnMA5+iW3yK0SSA9w3FdHxgEnDEJ9sI6SoG0OcJgsz5hQ1VCIZtIZH3/AOxQIG/uqRBdCURxqAJhBxNqix9lSf5o2isEOMCKtBBTIGP4UBMYxBVJHyOKSDfeo5xIGMFOxCe0eNijgfyzQ4EID5RSAlFI44AEEkYuNCmlIHGXP0ywrYjkXT1h3M984MzWGtoGgUul2DyQo5yJHuF/twSQOFVqhwK520jbJx+UQBT+OXyBxGWEV4CH4oQyAPpgCwRebboM0jfBEp9uMCYSpj0nEkZ8t8nfM4FExfai9QTZTq60yGGQgX+BoFex2ItU6vHZ2buQGI+RAK9CFh/J1+8flEAUSiAbCyo0CUdYHcMdtzCsP5evWwhtFkjesaDF3fH4qX1yf1sEneCciY7smehlzMd4xwJpR+/GOXIRFUrHK83TrOq5zSGRKk3SykjsyCtBIAyZPA9x8UpkAwKTeH+jBKJQAsG4wGx/pPsXCBx3CCvSS3SJ4xHICYiCwBvO4GqTcb0nqyfiastRtN6olqQykMAFEkGSyAvtF6t2Oamm6fpt1tWSqq5ntDSigMmFMpAskAWxEBefxDcgjwjlsxKIQgkE478QSoYZjjb9p3fBenZLAP9AWwSCnI9vrpVNd6CO0CbYS9w55uRK0rq8c4F0MR9DkW9ne3a6BIIRCArx8U24Ey+h3LzeXqZ4dpZKpWKxGFIoDlQg5as0ax3OEEof++AEFJPDtr9Gu7JNIG17xwL+F7CMHR6IZcQEMsKcdA9FIAjzMRCKi1etDwMV5J+ABHLGWUz4FPHxJrQQyEfvE6zHShqKYxHIZWu52agiQDJBKDP/Y0YM0/0RN46j2wQSsWMmYMMBa9Ljq+UmlxYTSFtSEtYeCeRSoKt/Xeybf1iO+ldIQAJJye1nchGy+XxDyOYg+lOkUPCgSZ7Mdu8CKUfBYMUa8Edusfj7z+CFi4GxLE5sbRFI1HkKNsErpqBLl2mQRAaJHWF1saz1e38EMsLeQDdnEC8JcouBsX+FBCSQmNRMrAtYQ/j69FRWaYnieEmSORkUCMELZNRClGSJOPsNNhL+J5L0yNra/9LOoYpsEciV8y6D9e6xBUxp/kwiQYFcy4qh75FA3mIe+s5OvJwdeTvYv0ICEgh6JtEgT58H1+FXcaxkl3VrQRD0PJBRa20wVjZz+3VrOUL8R0AKhDIwYZB2FRK/8hZIxbWqdaCG4M6mjTzQKW67l2XF0PdIIF3+JN4c4iYDP2SMWg9QIJ/kVYNcvFueXn2XW5qoOGbSJEACnUjYjracCzhEaJ5UdMUY/ryvLwXGKrGrXPEQCAxUzNa7Ak+h3fLzy3NJxMk55qVyOAJB/EO/qoL7b/o++FZIUAJ5EeLmk3fgIvYsZGdg/eqdfvUOKRS86CQ4ghPI5XWXvZWCGB3hWHOl7NqATDHgBP7VtbdARuAMy70X6sHqkpE1/orbIBHu10haecUDEMiYO4n3d4gikshrYt8KCUogT0P8vLvgCce/vyGEfH0f8uAXpFAIHGIFRiACKUeiVxWeCUH/6mA+mGvjCWMg1cRR1NH1FMg5PMNy3ygOAyOtYs4aHyW1pg7jqLR7PQCB8ARBDCsmLiABfa1d2jj/oAQi1nz9l02bkNhz4A/KzXt1gqWQRJUERZzbCVxEo9F8voI2kQ4TQELnXmqZObJTxkjcvuMDa8RTIC3XktJ0TmEFy8xomQEgMaGV0pWW5PAABNLlTeIdinzVNONNjuQfkkBiIRGe/Z+9s+ltGzkD8EsPKTGkFVmuYkcyzSii5ViSZUeCJEuO7dhJN8imcdEAiyI5BAh2L/vVol2glwK9FCgK9NBDD/299Ygy9YoaUaQ4pMbuPJf1Ls0RJW3mycz7MQ9ZCnnglpNggXzNr72v5P8edZ8kg5HyRKMW1r2zsXOwnECc6V0mE0Mobe9fv1MnFAhFRfzHHHNGKKcm5hRvhv11fWS8PK+/ibs0YSHnd0cgi4pfsKjDG6A/XrQoPoWIIxCI3FrRV5b+4tJbfaAtrKAgyHOQSKKRU+NCKJv+LKz0J5r8gabV1FykzR5WjGFI0uBIoZwchJ5ZGpYSli6/cIoIAmHKjr0+bNoQDtvqsKf7bF8YgVxGP+T27cMHD9yWjM9fz6buvqP+4FHWLpHwg1AyAkw0HtEFgm+rkDQwlBH9jdtSnFqez5QfagfLVu6QQFrhkniPUX5DCIHW5x2c33QEEcjukzVOvHu57f7z/YUMoUsEY311AtFIMCVlAYxJekBSoa2MsBr52u2efKHMYc/phibHhGARBLJwD6uOlBxu9u8i67AUIoRA4OEaF7bfE/LmgnNzeImEE5n7I5DGKCM0HQ6VET0bpZUW4s/4N+jxp2SxBLJInqfoA7VaYQpqcIocWyEiCITPEuRrQvkNh4JEiSQB7pFAoJvWDhbdPMEGqRHKDg9/KA1+CxAxBNIIl8SrhDWIg8o863M7rdkrFwifJcg2GbEtFyASIblPArGtAaEcG1N0COXUmOKj5pIhFG2KL8aYNqEY0+A9LNcgufVJS8i9zJ6m5t1TpCg5OuMdmhR3NqK4/RhNCs0txtf/TG/KTxIkcpOhgJJXf/7FPHTv94Y68g11OH6pm8HKaKjQ3+s/gaL6HqXsfxTvOviv57zr6qL4j4kycsMY5Bzn/p4GNOv8FtBDMN9PNIEw3lrwp/TTxSh7apviyoAyKuS4oD+5x5t/tU3x/erFu60Pb8iFe4Yt5QP9UUZAJMJxnwQCOq4YDJ4aur46EIwzvbuieLDqC5styBUIJed9noXJyCodrTQZZ7Lhb3qPNXM9gzr2+x4y430y5mQowzdUaTKUhoYK/b2aQPE/isZ6lAxQ/NdV7zpZtGKa+cquIAD7ZOoIkYoyn6puo4dgvZ9oAmG9teBP6R+TMwTXKITyq8m6YtRWd8tdYaBf9a7/bpx8RV7+ltvJIhIJV1YukMwMn0ulynICsb2MUEyHecJh0ScQTDNoUjEYM56aodZgTaU/d5UoAmkuEsjnuycQaIZK4vU4sWEefcv3rZpKANkVC0R9tZRAKCjy8fLl1uIY+iVIJKtg5QJhpvGWogsEN9nD4OkZ0wt4CH0qQchkFk7joYoA+UKeOYn8okQSiBMokOK5VbqDAnEW9t4v+c+KYdLIzrRGHioBFKML5Lg0omOcmfEF8tPTeAJ572583epDFqFLxONeCURlTipt9mA66yFwa0Y8R2MqbhAEk3XApeafRMxIAmnOzEe/13Xd+Z5QRtPnXRSI+3GyqTPPn2xe2eCnf8IoH2kH/t8ZWSCYyukgpkD+tRZPIMRTh+zjLhGUnfskEHfEgTLNnHCr1UAPwf4AqkyBlFhbYlZ31ClyI+OF0z8uIRBnZj4yJ5ObclcFAnqIJF4/J04DrT36XYt97MtRcEVmdIFg2vVYAtleWiD0xzcfti54nSkikSTECivR+QtknzG1Iwv4OMEPwV6CoP2VELvlvRP9qlj88bvvftT1rGUalNEEVzco7s2U0b1Hs9eb+Ciq8ifvujuU4v1q3b3fG8r/UvXxS32jaepoKI1SDv29/gmdiuXd7w6lahSgbHjXwX+97F3XAipX0HKOTTZ7ruvn2aylMDhbcHb+HwE9BPv9sAWCaZueQBhvLfBT+u/WV6Mg+BZljbJFeTdKvdqibI9cskXx/+qv3a67cgUiERxCKdwTgWRYmTl4H2qa4vyH0AN2vwbjmYs//UjtT6IXJep8uywHELZ0ZYACSqEJlchr2VHrQNgYS9aBPFtLkSfSIJKVUCYU7Z4IhLlgMNG+1jRN9BDMJQj7OQ6TOjMlC5wF4qR+1v0tYXuBDdGXE5U2oShzuAI+AiGdwTICecalDj00T2Uar2QVHBBK7X4IJMeKoeNYgx99/kM4OIGLHVThToO3QIrCCKQYKIGqEoJo8unFO3H3aNCpkDGVZU4kfLqWLo9BIkmfPUJR74dAVEL5IWzIgsbR0UP4yKJKQnZaF2904C2QhjACgfPAJN7whE3kbcU+sr1a9xQSXSCP19JGBtIl6ZNfJxReJ94JIZC/WaEFomTnC6Q1uZeZ/3OscKYHvAVigTgCsZshAuERCUjk1SG2QBSlOsQCSexAW07IWkJJypQLZMT+KgWSV/38wTyMIxBVZwlEYdNHAvGhBwuEKJxpcRdIViCBQHF+Eu+REoJId/eAh0AUpY4EkuhhUjy4BokkFdBprpQ9dSUnEnLvhXWbqN8ML5CmW60BLHrz7u0kIRAduAtEF0kgcB5yDcEm0vrFanESiFJfRiDXaytBpmJJUkKEM9HLGxkSTHtQXU4gTniBKD/MF0jLmnOvkYBAssBfIEWhBAK9UFEMNtEiKA7wEsjEIKqoCViyo6IkbVYtkPJGYYeE4dgwlxAIZMNM9/gqMHHSE0jT5i8QC8QSyOy58J2wSbzRcri6wE8gyumtQNI9SEom80rEZZUCyR3s7ZAolM4OowqkyEcg0E1LIFYL+AvkRDCBQCugkoNjIm8PeArkqDIWiKgJvDIVS5I2qxLIjTw2yRJUTutHUQQCWT4CgS8pCcSBBATSF00g4ESoJcdEqmNv2lwFQi1FUQVOwJLnSklSZSUCUZny2Nw7mMnCOjutMCIinXp1wSxV8/6kNzgJRGPee8pbIA4kIJAmCCcQ0Dkm8aJOWr7FHF+BHEUSyOu11fIcJJKk0Rbwb94CUTVWxHxn7yAH7ITPw7MSKyQyHIRI44Ubun5FVDkKhHca7zkkIRBdQIFAN0o/3bABisNpf3AWiHJ8lwQi+ypKVg/XOpA8Wx6FjTKwKSoupnHMCokYZrBANlAvK1RIyFsg/AoJu5CEQCxbRIFAN8KJHpjg00SwP7gLZHiHtrBkMq9EALgJJF/bXyczrO8jeQSWnFUHwzYrJOLG1WdejVA031s4iyGQDFMgFa6tTLqQiECuQEiBQJdXEi9K5MX+4C8Q11KqyFXoUiASkeAikPIcedTyEEzRN0nUO21mSOQooDc9WoKYcQVSSbSZ4hUkIpAsCCoQOA9zqjkm/InqvQYkIJBxO3cufUwuk26SJf0hWT0cBFJmRcwzGpJHWIFQDplx9Z0aTLOOTsdypv/81wMFYgcJ5HMvwXbuDiQiEKshrEC8b6bt2jkWQ/zlZm1IQiCGKxAOnbDo7P78SVxFSH9IBIeDQFTiY1NTIRxFhYlplGaExNxxApcm80Ap9uyAwtgMI9lZxpZGXeGAVYRkBNIHcQUCfYtLEu/ky+3c5iIkIpBTQsnF76X49MWoUCRWnP3V9e5j6Q+J2PAWyCZKt4osEMxgeBwkkD1CKfuGCSEQpRh8XuO5ghhy2HrxtlySEYgDIgsEWlTuBhcPV26XMZYDCQlk9BI7ELsb7+NdcHnxdunVx+VodOkPidDwFMhOwZUHF4HcUEUhkQyzEGTDNwETSilYIL0F5zX2rQSyeM9tSEYgDogtELBPFOU4dhIvSuSlLk5IIHUUWYtjEFwl/uDxUvp4OFbQpfSHRGS4CWScbsVTIG5c/bTCEkieUPa8cVCg9ThYIOxYtjo5r7Exmc4Jnyxeqw+QiEAsB0QXCMBVlc/HWCcUQwdISiBtQjmAqAYJrvB78Sjy5hUa4fqJ9IdEXLgJRAVIQiA3lFgCATK129DFK4ZAgaCyCWZpO0W3prfdY3JiQzIC6bVif6/xgYX8PX4S76SYZBMSE4hrqHWAWAZ5cg1+di9fRely9cDX8Vf6QyIsd1Yg+zgIAg3siKNAgbDLMTRvOLQIGfLYu28WARIRiKVz+F7jAwspTIrIOSTy5pISyLiXogaxDPKKPbk/ex3OIW+f7872bJT+kIgKN4EUtCX43ghBmymQGqHU0PtAlYTBAlGK8+oIUfpQc7aHOPdZPo5ALN3m8b3GBxayziGJd/IFbiQkkKrrp8oygnoUps36s0WVIa8eXTPv3n0k/SHhjarWNA58Y4TjkzaXAkmBHcar4v/80aB0xi1QmJQIhf70RZthfeZFPhnD2Hv3dJZPRCDNK5vPXwziAwGgcNVfsko8LP1bQikkIxDqD8oZQAyDPNqFIB4ENNe9fhHQdkv6Q/I/9u6uN20rDOD4kxyDncqODWFrBEnaipAhEF0n0eQii9RqN7vZTftFdjftM+xLt+YtFsWxwc85jrP/7w5ZrVRE/dd58bGi+Lpr4Mgr6/nYNyDTh5nayLK6ku8zTqTnV03xovKhlYC8X/Xj1yOpUJA/RA4MyBt50gf6ASXRaGDgzqFz9x+HVyLqAfEfhhPNqcnqpEh3s3TRmx8dxh9mFlM8CwF59dYsvH1/JIcX5IMUuDzOc1748lz6AQ2j0MChf6ZHB7iYz2QPD36heRAMexMpa+i7IgX62c1TV5/3/zqnDxNZSjJ7t/fm5/r799/MUvhf5t+zb0HK3NsPDoj88o5+oLKYuSvHEpk9TPetx61gLdna27Tf1/kxO10XLVuk8BqcjE7XrIVjqeBeKgTkTylyeU4/UFHC8MOxMJLvJsO7snc9P5gJfthvHcuj9Ou8KDP0mA8nu2bD+tVfxLlTGIttuW9RP9Ua4wC5kuxpt2MPdsWSNbkN/Iun2zH/TDy2ZVe+t7/O/Cj7d0HvSrKyB9jYCUg7EuvOcwOiNcYBCvsxSBz81rFLrxcEd76fWfWefv+Urk9cCfKfEpLdZr1hEMz9R0EQ3Paunt4RfGMjIINEHMgNyCcB7Fr3I3TyUwc0XK/Ol9Kx2IAY6gek6+j/VO757icCWBWH7kbagJKuSWn9ZlcbeVUDErZH9hc/Vk4JCGrSNQsdARqjb1JtUTIuuZHXK60vLuUGhOVx2NWiH2iexKRGoiRaHcLcVH8d5xDApihcrR8CDXJjUnpTRG2TcjtsUHRCQFCLlkmFWnPJgBPaI4aR7ojGtbyAvBHAptCkHO0VAXSMtedd42YPxC9zTzIBLEp01yIBJ3Q38aYGJiVNRUBQhw4DEDTQQHUT72OSPGmo3KOwAItW50EAzTK+HuhOOI2NuRk1dhFd3uWdZALY09eeSgZc6eve7hs7+Fg4JyBwz2v23hMAy4BwFBbcazV74hfAwqfznXgQHTa11NciAQD/C61m710EANSFgAAAKgQklrIir04CAHguRnstoo+7pl5tvcPzAAAK23hbZY89qV1IQWp2ebLmpb5uPv7rpb7kXf6ydfmr9cveSQ7esQToiEyqXfbg9/opnr+Kase+mtTZ5uPPJvU67/Lrrctn1i+b4xw/CQAVe7wYdGSeg1gOdX9as3t5AZofEPoBaLkuP4fVMs+Bp3Drq8mLmDppfEDoB6AmzrxPqlRAWrXpEJBnoOkBoR+AosEyCw14ZsQjIM9AwwNCPwBNiVmICYh1BES3EEUBoR+AdYPVJBYBsY2A6BaiKCD0A7DOMwvdiIBYRkB0C1EUEPoB2NdZFaRPQOwiILqFKAoI/QDsi7pmIRwTEKtedkAyylw+s37Z0A/AgTg0S22PgFhEQHQLURQQ+gG4sCmIaScRAbGFgOgWoigg9ANwYlmQpe7Nkw/y/fBYeitzd88crNU2ayX/gNnY/gs8AvKNvftrTRsKAzD+4psEBorGQ5Nh2cWgG/0UeuMEtRT7ffbhZ+J0meswJuckJ6fP76LQSAs9pT5j558/BhoQ+gG4M5nrTQkBISADDQj9AJyKCYhrBMRuIW4FxEo/ZtwgANSwSAmIW4EFxBT2o/+49fLe+cvGRj+mqjoTADctnh4JiEOBBWQwbvTj9h04qRQWUa8mAvhuGiePtQISxWeRFBbx2UxKs/is5hfEF9ffYEFA/NH7KHbZD5lraebBdQaRAEPGMl4C4sEodtmPVEupD/fhEBAMW4ABydW87S6f/cjMRldmn1+eHLZmpRvz+mNkAwHpwUP7k6rnEwICCAH5NyBHq9dTPrZ6ZvLTqxs929pICAHp3kPry9Z0PPXiRk4CgmELNSCqm12e71dasT3kO6MVq32+HBGQoQWkTT8mYy09+3GlMwHBsIUbkHryEQEZWECa9mNWmUCPRYRVWIAQEALS2pAC0rQfqabFh9J3AWBBgAFZH+fIterFmKtsGPNCQIYZkOb9UE3PE+j8wx+wIg5yH8hrJSFmfXyw3Osf+2WZGQIywIA07cc3/YNzTABL4jB3oi+z34ut3opCnNZjnaKyuqy92hkCMrSANO3HVCueBYAVgQakKEZ+tKw+KR6s/8pMziqsQQXkQZqa6UUsAOwINyAdISDdsbB/kAl0wCICQkA8GEXn/RBhAh2wjoD0EpBJdB/H0769j6L7fohMx+9MoEdxhxYChCXAZbzd+tTix64vEad6H8UO+nEqyLP81sdOdPadIzQEhIB4MIpd9KMoSCwEBLCHgBAQD0axk36ITISAABYREALiwSh20w8RAgLYFGBArnd3rMvtH658nIB8tuOrT/0gIED7PyDpjYOA5MXxV7vrDehWLv+wFpBJVJs3ARErvnz1qR8ACMhVQAomvz4CK2u969xeQO4QVkDoBxCQYANSHMJ7dSzvyjj4nywCQj+Aj6rRRsL6+thImDu8/cNaQJ6SurQwTi5mYl9XAaEfQFAISAvF8Yw/o0bmeh+3ZwF2FBD6AYQlwIAsr65CN8VV6C0Css7/S/sk9nQTEPoBBCbAgBQN2erZyykah03jgBj1k9jTSUDoBxCaMANyXL6bmWMyzPZweXLYGgLSY0DoBxCcRlfa1tfTlbZWqHPj+ybR50MOCP0AwhPgMl5b1LnkvmW80YADQj+AABGQ1gFJowbmjQPymCSPtn9pzgNCP4AQEZAbAbnMxb9j23xdbdI4ILGDX5rrgPjWj4mLzTTAx2P9vSiEgOxMQavM6B0ZARlkP2SuKTfbAu1Zfy8KISBZJRxZtiEgpXD68aSqc+6XBVqz/l4UWECy0cgQkFIw/fjF3v3sOA0DARg3uI20UqL+kzjQgVOEENI8w96Wx+LV6YZCe1gQam3PjPv9Tj1XyXxKndrb/GrcLJ8HU5XPugcqKz6LCAgB8d2PzXgOSPPzQDghBL0pPos6C8jL4fBMQBad9GM65sXX9gdKERD0xvgGuvs+qhIQFtGLBcRdP9KQF2sX1z8BQWzGN9Dd91GVgPySr718eMOBgITrx5wXX3xc/wQEsa2yB1Pd0VcgIP9wHG4wPsQ/0f31Y5sX+4mAAAUM2d5cefTVDQhbmYTox2bYXBbQefsJKGLaZ2u72qPvNoez5+xTKqdOQHz1Yzxl47KADqCM7W6wNK+qj74LtnNvFxBX/VjSMe7rHeoIIB4CUkKNgPjqxz5fDAkA2gTEdJnk72v2JcdghYC46kf6OF59gWyDBcBBQE6eWr+7UOP3l/IB8dWP8yMIC+gAegjIdn2rGm9+Fg+It35cFYSd3AEED4gvpQPirx9/CjInACAg5RQOiMd+pDTtcs6D5U4MNR4eAVQefTURkCD9ONnl40RAAPz2Td694fv7ZghImH6kNG9M94IjIIAzKgTkbiUD4rgf1puJEhDAGxUCkvwEJFY/CAjw4FQIiJuABOtHWq0b4hh2wB8VAuIkINH6AeDhqRAQFwGhHwDCUSEgDgJCPwAEpEJAzANCPwCEpEJAjANCPwAEpUJATANCPwCEpUJADANCPwAEpkJAzAJCPwCEpkJAjAJCPwAEp0JATAJCPwCEp0JADAJCPwB0QIWANA8I/QDQBRUC0jgg9ANAJ1QISNOA0A8A3VAhIA0DQj8AdESFgDQLCP0A0BUVAtIoIPQDQGf0x1Mzn1IH/isg9APAI/ic0CAg9AP4yV4dEzEQAzAA48+6ALrk/M4SSyQE644C8QcAlUD8AcBRIP4AoBCIPwA4DMQfAHwOxB8AHAfiDwCiQPwBQBSIPwCIAvEHAFEg/gAgCsQfAESB+AOAKBB/ABAF4g8AokD8AUAUiD8AiALxBwBRIP4A4D+QK/wB8Lo7gfgD4HlXAvEHwPtuBOIPgAEXAvEHwIJ+IP4AmFAPxB8AG9qB+ANgRDkQfwCs6AbiD4AZ1UD8AbCjGYg/AIYUA/EHwJJeIP4AmFILxB8AW1qB+ANgTCkQfwCs6QTiD4A5lUD8AfBjr15uGARgKICds//CRQhV/HqCpIdnL+E8bwTiD4BALwTiD4BEzwPxB0Ckx4H4AyBT+QOAPwTiD4BU5Q8AxgPxB0Cu8gcAw4H4AyBZ+QOA0UD8AZCt/AHAYCD+AEhX/gBgLBB/AFD+AGAoEH8AsATiDwBGAvEHAGsg/gBgIBB/ALAF4g8A2gPxBwDfQPwBQHMg/gBgF4g/AGgNxB8AHALxBwCNgfgDgFMg/gCgLRB/AHAJxB8ANAXiDwCuyh8AtATiDwBuA/EHAA2B+AOAH4H448NeHdsACMQAEKtv/4UZAD2gkNJewgCsB+IPAE7yBwDLgfgDgLP8AcBqIP4A4En+AGAxEH8A8Cx/ALAWiD8AeJM/AFgKxB8AvMsfAKwE4g8A7u7yBwALgfgDgG/yBwC/A/EHAF/lDwAm8gcAE/kDgIn8AcBE/gBgIn8AMJE/AJjIHwBM5A8AJvIHABP5A4CJ/AEAAAAAAAAAAAAAAAAAAFd7cEgAAAAAIOj/a4szAAAAAAAAAAAAAAAAAAAAAAAAAAAAAAAAAAAAAAAAAAAAAAAAAAAAAAAAAAAAAAAAAAAAAAAAABarHct+qpwHKQAAAABJRU5ErkJggg==;fontFamily=Comic Sans MS;" vertex="1" parent="1">
          <mxGeometry x="320" y="150" width="152" height="65.17" as="geometry" />
        </mxCell>
        <mxCell id="bA4HHIahDuAjgqxs_33y-22" value="" style="group;fontFamily=Comic Sans MS;" vertex="1" connectable="0" parent="1">
          <mxGeometry x="690" y="240" width="50" height="90" as="geometry" />
        </mxCell>
        <mxCell id="bA4HHIahDuAjgqxs_33y-4" value="" style="verticalLabelPosition=bottom;html=1;verticalAlign=top;align=center;strokeColor=#432D57;fillColor=#76608a;shape=mxgraph.azure.user;fontColor=#ffffff;fontFamily=Comic Sans MS;" vertex="1" parent="bA4HHIahDuAjgqxs_33y-22">
          <mxGeometry width="47.5" height="50" as="geometry" />
        </mxCell>
        <mxCell id="bA4HHIahDuAjgqxs_33y-8" value="&lt;div&gt;Client &lt;br&gt;&lt;/div&gt;&lt;div&gt;&lt;br&gt;&lt;/div&gt;" style="text;html=1;align=center;verticalAlign=middle;resizable=0;points=[];autosize=1;strokeColor=none;fillColor=none;fontFamily=Comic Sans MS;" vertex="1" parent="bA4HHIahDuAjgqxs_33y-22">
          <mxGeometry y="60" width="50" height="30" as="geometry" />
        </mxCell>
        <mxCell id="bA4HHIahDuAjgqxs_33y-23" value="" style="group;fontFamily=Comic Sans MS;" vertex="1" connectable="0" parent="1">
          <mxGeometry x="319" y="440" width="180" height="110" as="geometry" />
        </mxCell>
        <mxCell id="bA4HHIahDuAjgqxs_33y-19" value="" style="shape=image;html=1;verticalAlign=top;verticalLabelPosition=bottom;labelBackgroundColor=#ffffff;imageAspect=0;aspect=fixed;image=https://cdn4.iconfinder.com/data/icons/online-marketing-hand-drawn-vol-3/52/person__rank__employee__ranking__user__man__comments-128.png;fontFamily=Comic Sans MS;" vertex="1" parent="bA4HHIahDuAjgqxs_33y-23">
          <mxGeometry x="51" width="78" height="78" as="geometry" />
        </mxCell>
        <mxCell id="bA4HHIahDuAjgqxs_33y-21" value="&lt;b&gt;Rating&lt;/b&gt;&lt;br&gt;&lt;div&gt;Includes - Job Success Rates&lt;/div&gt;" style="text;html=1;align=center;verticalAlign=middle;resizable=0;points=[];autosize=1;strokeColor=none;fillColor=none;fontFamily=Comic Sans MS;" vertex="1" parent="bA4HHIahDuAjgqxs_33y-23">
          <mxGeometry y="80" width="180" height="30" as="geometry" />
        </mxCell>
        <mxCell id="bA4HHIahDuAjgqxs_33y-24" value="" style="group;fontFamily=Comic Sans MS;" vertex="1" connectable="0" parent="1">
          <mxGeometry x="65" y="240" width="70" height="70" as="geometry" />
        </mxCell>
        <mxCell id="bA4HHIahDuAjgqxs_33y-3" value="" style="verticalLabelPosition=bottom;html=1;verticalAlign=top;align=center;strokeColor=#3A5431;fillColor=#6d8764;shape=mxgraph.azure.user;fontColor=#ffffff;fontFamily=Comic Sans MS;" vertex="1" parent="bA4HHIahDuAjgqxs_33y-24">
          <mxGeometry x="15" width="47.5" height="50" as="geometry" />
        </mxCell>
        <mxCell id="bA4HHIahDuAjgqxs_33y-5" value="Developer" style="text;html=1;align=center;verticalAlign=middle;resizable=0;points=[];autosize=1;strokeColor=none;fillColor=none;fontFamily=Comic Sans MS;" vertex="1" parent="bA4HHIahDuAjgqxs_33y-24">
          <mxGeometry y="50" width="70" height="20" as="geometry" />
        </mxCell>
        <mxCell id="bA4HHIahDuAjgqxs_33y-25" style="edgeStyle=orthogonalEdgeStyle;rounded=1;orthogonalLoop=1;jettySize=auto;html=1;fontFamily=Comic Sans MS;sketch=1;shadow=1;" edge="1" parent="1" source="bA4HHIahDuAjgqxs_33y-4" target="bA4HHIahDuAjgqxs_33y-19">
          <mxGeometry relative="1" as="geometry">
            <Array as="points">
              <mxPoint x="714" y="470" />
            </Array>
          </mxGeometry>
        </mxCell>
        <mxCell id="bA4HHIahDuAjgqxs_33y-26" value="Gives Rank For the developer" style="text;html=1;align=center;verticalAlign=middle;resizable=0;points=[];autosize=1;strokeColor=none;fillColor=none;fontFamily=Comic Sans MS;" vertex="1" parent="1">
          <mxGeometry x="480" y="440" width="180" height="20" as="geometry" />
        </mxCell>
        <mxCell id="bA4HHIahDuAjgqxs_33y-27" style="edgeStyle=orthogonalEdgeStyle;rounded=1;orthogonalLoop=1;jettySize=auto;html=1;entryX=0;entryY=0.75;entryDx=0;entryDy=0;fontFamily=Comic Sans MS;shadow=1;sketch=1;" edge="1" parent="1" source="bA4HHIahDuAjgqxs_33y-5" target="bA4HHIahDuAjgqxs_33y-19">
          <mxGeometry relative="1" as="geometry" />
        </mxCell>
        <mxCell id="bA4HHIahDuAjgqxs_33y-28" value="&lt;div&gt;View &lt;br&gt;&lt;/div&gt;&lt;div&gt;Rank&lt;/div&gt;" style="text;html=1;align=center;verticalAlign=middle;resizable=0;points=[];autosize=1;strokeColor=none;fillColor=none;fontFamily=Comic Sans MS;" vertex="1" parent="1">
          <mxGeometry x="210" y="365" width="40" height="30" as="geometry" />
        </mxCell>
        <mxCell id="bA4HHIahDuAjgqxs_33y-29" style="edgeStyle=orthogonalEdgeStyle;orthogonalLoop=1;jettySize=auto;html=1;fontFamily=Comic Sans MS;sketch=1;shadow=1;curved=1;" edge="1" parent="1" source="bA4HHIahDuAjgqxs_33y-4" target="bA4HHIahDuAjgqxs_33y-18">
          <mxGeometry relative="1" as="geometry">
            <Array as="points">
              <mxPoint x="714" y="180" />
            </Array>
          </mxGeometry>
        </mxCell>
        <mxCell id="bA4HHIahDuAjgqxs_33y-30" value="&lt;div&gt;Post Projects and &lt;br&gt;&lt;/div&gt;&lt;div&gt;accept devs.&lt;br&gt;&lt;/div&gt;" style="text;html=1;align=center;verticalAlign=middle;resizable=0;points=[];autosize=1;strokeColor=none;fillColor=none;fontFamily=Comic Sans MS;" vertex="1" parent="1">
          <mxGeometry x="510" y="185.17" width="110" height="30" as="geometry" />
        </mxCell>
        <mxCell id="bA4HHIahDuAjgqxs_33y-31" style="edgeStyle=orthogonalEdgeStyle;orthogonalLoop=1;jettySize=auto;html=1;entryX=0.007;entryY=0.384;entryDx=0;entryDy=0;entryPerimeter=0;fontFamily=Comic Sans MS;curved=1;sketch=1;shadow=1;" edge="1" parent="1" source="bA4HHIahDuAjgqxs_33y-3" target="bA4HHIahDuAjgqxs_33y-18">
          <mxGeometry relative="1" as="geometry">
            <Array as="points">
              <mxPoint x="104" y="160" />
              <mxPoint x="321" y="160" />
            </Array>
          </mxGeometry>
        </mxCell>
        <mxCell id="bA4HHIahDuAjgqxs_33y-32" value="Apply" style="text;html=1;align=center;verticalAlign=middle;resizable=0;points=[];autosize=1;strokeColor=none;fillColor=none;fontFamily=Comic Sans MS;" vertex="1" parent="1">
          <mxGeometry x="145" y="160" width="50" height="20" as="geometry" />
        </mxCell>
        <mxCell id="bA4HHIahDuAjgqxs_33y-35" value="" style="group;fontFamily=Comic Sans MS;" vertex="1" connectable="0" parent="1">
          <mxGeometry x="386" y="630" width="78" height="80" as="geometry" />
        </mxCell>
        <mxCell id="bA4HHIahDuAjgqxs_33y-33" value="" style="sketch=0;outlineConnect=0;fontColor=#ffffff;fillColor=#647687;strokeColor=#314354;dashed=0;verticalLabelPosition=bottom;verticalAlign=top;align=center;html=1;fontSize=12;fontStyle=0;aspect=fixed;pointerEvents=1;shape=mxgraph.aws4.eventbridge_default_event_bus_resource;fontFamily=Comic Sans MS;" vertex="1" parent="bA4HHIahDuAjgqxs_33y-35">
          <mxGeometry width="78" height="53" as="geometry" />
        </mxCell>
        <mxCell id="bA4HHIahDuAjgqxs_33y-34" value="Events" style="text;html=1;align=center;verticalAlign=middle;resizable=0;points=[];autosize=1;strokeColor=none;fillColor=none;fontFamily=Comic Sans MS;" vertex="1" parent="bA4HHIahDuAjgqxs_33y-35">
          <mxGeometry x="14" y="60" width="50" height="20" as="geometry" />
        </mxCell>
        <mxCell id="bA4HHIahDuAjgqxs_33y-36" value="" style="shape=image;html=1;verticalAlign=top;verticalLabelPosition=bottom;labelBackgroundColor=#ffffff;imageAspect=0;aspect=fixed;image=https://cdn2.iconfinder.com/data/icons/kids/128x128/apps/package_toys.png;sketch=0;fontFamily=Comic Sans MS;" vertex="1" parent="1">
          <mxGeometry x="95" y="730" width="68" height="68" as="geometry" />
        </mxCell>
        <mxCell id="bA4HHIahDuAjgqxs_33y-37" style="edgeStyle=orthogonalEdgeStyle;rounded=1;orthogonalLoop=1;jettySize=auto;html=1;entryX=0.5;entryY=0;entryDx=0;entryDy=0;sketch=1;shadow=1;fontFamily=Comic Sans MS;" edge="1" parent="1" source="bA4HHIahDuAjgqxs_33y-33" target="bA4HHIahDuAjgqxs_33y-36">
          <mxGeometry relative="1" as="geometry" />
        </mxCell>
        <mxCell id="bA4HHIahDuAjgqxs_33y-38" value="Hackathons " style="html=1;shadow=0;dashed=0;shape=mxgraph.bootstrap.rrect;rSize=5;strokeColor=#DFDFDF;html=1;whiteSpace=wrap;fillColor=#ffffff;fontColor=#000000;verticalAlign=bottom;align=left;spacing=20;fontSize=14;fontFamily=Comic Sans MS;" vertex="1" parent="1">
          <mxGeometry x="500" y="740" width="302" height="150" as="geometry" />
        </mxCell>
        <mxCell id="bA4HHIahDuAjgqxs_33y-40" value="" style="shape=image;verticalLabelPosition=bottom;labelBackgroundColor=default;verticalAlign=top;aspect=fixed;imageAspect=0;image=data:image/png,iVBORw0KGgoAAAANSUhEUgAAAggAAACkCAYAAADyvdbfAAAgAElEQVR4Xu1dBZgctw5WmBpO07RNGmZmpoaZmZmZmZmZqaGGmRmahpOGGmZq0tcw05Nmb/Zm52Z2NLNwe3f2+96X3o4sy79JtmUp1DdMIJJAQCAgEBAICAQEAgIBBQKhhIIg+oNAQCAgEBAICAQEAmoEhIIg+oRAQCAgEBAICAQEAgEQEAqC6BQCAYGAQEAgIBAQCAgFQfQBgYBAQCAgEBAICASMERAnCMYYCQqBgEBAICAQEAiEOASEghDimlxUWCAgEBAICAQEAsYICAXBGCNBIRAQCAgEBAICgRCHgFAQQlyTiwoLBAQCAgGBgEDAGAGhIBhjJCgEAgIBgYBAQCAQ4hAQCkKIa3JRYYGAQEAgIBAQCBgjIBQEY4wERSAj8PzVazh08iys3b0fnv733EGa9CmSQpGc2SBHhjQQ7bsogSypKF4g4BoCn798gSNnzsG63Qfg2p37DswKZMsIpQrkgfTJk7pWiMgtEGAiIBQEJlDr9xyAuas3OaVuX7caFM+bk8nRn2zibytg958nnOYb2aU1pEuWxDRvrQw0CVVs28MUr80zxpqid5X4wIkzMGb+UktsmlerAOV/zW+Yt++kmXD28nWndFP7doFEP/9oyEtJULZVVza9q7iaKYuEmj2oJ/wUNw5bvknYN3cZ9E02M4uEehhx6m4VX0/yVsPw+u1bqNt9ENC4NJNypE8D/Vs3NpNFl3bk3MVw+NRfbF7JE8aHCT07sullQiNcV4wfAlEiRTLNV2TwDAJCQWDiatSxZTZWJiRP8taqHrc8Zd7QoUPDxmmjmWhZJ1u4bgus3rnPOgNFznrlS0KNUkV1eXFxMNOmXJ6u9Bc5b80u/YEWF7PJk/UxKwuHvmfTepAva0YH0k4jJ+EO+55h9nlDe8MPsWMZ0ikJWg4aDfcfPzHMs2bScIgQPrwhnTMCs/1Fi1eapIlgdNe2XpcjQby4MGNAd3a5kxevhJ1HjhvSm+mfhswEgUsICAWBCR93IFvp3J7k7S4FgfhYqRsTXvj46RNUbt+LS86mcyazu3H/A4+GR8z+jS1b5aIFoXGVcmx6NSFXfnW+WQN7wM8/fM8q12oZLOZMorqo6NVUKXrNB4yCh0+eGnIY1LYpZE2bypBOSVC/52D478VLwzwrJwyDyBEjGNJpEUxY9DvsOXrSUl69TKTAkyJvJVltZzNzwtCZC+DoXxcNxTPD05CZIHAJAaEgMOHjDiArnduTvNXVo9057dKtpOn9u8EvP/5gJavTPBv3HoLZqza4nS8xnNKnMySO/5Mmb3fjzuUnC2OlrygrYrY8OW/4cOFg7eQRLLytlsFiziQKbgpCw95D4N9nL5i1N0e2eNQAiBktqrlMSG21nc30YaEgmG6WQM8gFARmE3AHkJkBIxftSd7q6nHL0oIlapTIsHzsYCZiPLLu46bBpeu3eMQWqLx1gmD2uH/T9LEQKpSFCvll2bz/MMxcsd4yA24/daW/WBZOlTE4KQhN+42Ax//+z13QaPJZN3kkhAsX1lQZVtvZjLIpFARTTeITxEJBYDYDdwBxJ14rO0ErvN2pIBAvd8ggyzR2wVLYf/wMswXMkxXJlRU6Nailm9Fdbfrp82eo1K4nW8D29dCYNY95Y1ZlAeXbdIevX7+yy1QTrp8yCsKGDWOYn4uRISMXCIKLgrB5/x+o1K1zAQl+VrPj1JV25pYlFAR++/kKpVAQmC3BHUDcwRIYCsLrt++gZpd+zBprk23Ae84wFu85lRxfoXFdLTSy82Qyagt3tSmXD9U1FB4bbJo+xuVqG5UZK3o0p/fomVIlh6EdWhjKYVSOIQM3EAQXBcGbWJrtZ67INndIL4gXJ7ZhSwsFwRAinyMQCgKzSbgDyGhR0irOk7yV5XUfi8f5N/SP8+OjVbKR9Xb2dKlgQJumTNT0ybh11uMQCY3DPn78BF90dtH50eq9B1q/O0tcGZy16eYDuCv8nb8rtNI/1HWgkwM6QXCWsmE7nbxw2SkNRxYuRi53CCcM1kwaga8FwjlQBDUjRbM4dm1YCwrlzOpQ52b9R8Cjp/zrifVT8ZQojPEpERViVj6lYNwXTkJB8OQo8QxvoSAwceUOIM6kqy7Sk7yVZRmVUwmt6ukYlI7MnSUrdVTyq9dzEDx78YqJvI2sc8Oa8Cs6RNJL3759g7ZDx8Gdh48lEo6MRnjIZbnDjoF4dWtcBwpmz2yq3lrEXcdMgcs37zjlQwalrQc7P6ngYEQKWAUDZcTlCjlhUCBbJujepG4AiqCkIHxARbZKB94LndRJEsGYbs6fLHL7LXccuKogcMsRCoInR4pneAsFgYkrd1ByJl1fVRDmDu4Fv23cBgfRa6GnFASzTprIa9yIzq2YrWSOzNU2rdiuB3z+zHNuY8aYy6gWRnKHRwO1tWioZkTXBXephVW7VKOynX1/9vIl1OvBM2K1Mk6UZQclBcGoHeR6xY0VE+YP68NqAi5PLs5cfnrC1SpTDOqULeFUdqEgsJrWp4iEgsBsDu4A4g5IZbGe5C2Xc+LC3zBo2jzDhf/vG7eh29ipTula16oMpdHlq5XErSvxprfvdP/sqcSVRatNP3z8iLvC3mzRrPQLPeZGcreqUQnKFMprqCBwd37cSgoFQRspo/aSc5npI8s274BlW3YZNk24sGFh3ZSRhnRcGV3ZOAgFwbAZfI5AKAjMJuEOIDODXC7ak7zNlCHLzpHHSj05d+fK5rBSBrM5JTJOPfUWUW5eyu/MF4MZeYmWTndGz1viNNvysYMgapQorPq5E2OhIARsFiO7HzlH7ozpoE/Lhqa6A7cPctrYiFdnPG0av3C5U/mMyhEKgqnm9QlioSAwm8FoAFnZBZhZvPUWKqb4phYLTl2NJgMtuap16gvv3r9niWyFP4uxgohTTy3caYE2uoaRi6GnhPSk0F2J7AH0DDPVfbB8627wFW0znKW1aAAYXmUAaFVWoSAERM5qH+O0AXkeJQ+kRmkVenwko15nyUjOlROGQnUcv86SUWwIoSAYtZTvfRcKArNNjAaQLysI7z98hKodnR+HJ03wM0zq3UmqBqeuZoP+cPkSnSftDpTNzamnloLAzaeVl9nddMk4ZcvKFScAj2yv4KpclF8oCN5VED5hcKdKjKBrFIuCYlK4oiA0QZfg89Y4D1Zn1N+FguCOUeZdHkJBYOLNmZiNBoheUZ7kTWX2nTQLoxZec1rTaf26QMKfbFELe6B3w4sM74ZmdvnPX76Cuj0GsdA2w5fFUIfICu7cPFTkqom4c4tgzVe/lsj0UqMcngo4S/SsjZ63yYkjr7vwFgqCY8twX4CQa2RykWwlcdqXMy8Z8UmXPAlcuHbTUEQyjiWlUysJBcEQPp8jEAoCs0mMBpDMxspk60neJBeHv1Lud+8/QLVOxtbUZupqxqWyGb7M5tMk4+CinFxvP3gkPaXkJAriQ8F83JnGYvjr/RgG21nq1KAmFMnl/xyUU0d34S0UBMeW4QZ96lCvOhTLk8NSV+G0rzsUhO8iR4IqxQrBog3bnMoZ/bsosHSM9kZAKAiWmjhQMwkFgQm/uwaiVnGe5G1FQeDmIetospLmJG4d6akUPZnyRuLKZMZ40xVF0ajOHHnViz0nTwIMwDUD/Sa4moSC4IggnfbQqY9RckVB47SvOxQEmQenPL36CAXBqCf43nehIDDbhDMwOAPR2wrCk/+eQeM+zneyFNiFArwoE6e+0aN+B0tHD2QhyOFHjLgxAliFGhBxZaIJr/eEGXDu6g1WsVYj6hkx58irnpwb9h6KkQOfG7FmOZYyYiIUBEeEOO1ldc6QS+KWsQSvMGI4ifLI4UN9i0M3GW2ZkqBNkzoJBcFoBPned6EgMNuEMzCsDvbA5l2ucD5oUb2iAxINeg2B/z03DknL3f14so7MJgxAxpVpI8afMHJtLDNPgqGlJ2OIaXenK7fuQpfRkw3ZqtuDY6Bqtd+qhREKgvcVhJ7jZ6BtgLHiWq5wXhzjlXT7D2cscBUEvf4kFATD4etzBEJBYDYJZwAxWVkm4y7GygI4cmvxvXnvAbQfPsFQVo5M5D+e/MhzEocfhw+HhoMNh4+SxlPyc5435syQBvq1amxJESI322Sp7kryRQXBlfoY5SUbE7I10Uvc/uVKn9n5xzGYvGSVkaiQ6OcfYWrfLi7JSnJuP3wUpi5dbVieVp2EgmAIm88RCAWB2STcwc5kZ4nMykTCkVuPLydvWfTY1xI99zlLXK9vejsPS2AxMnHqx2BjJ9EKKmQmvzNajqx6VxucvO7AXigIji3oDdyf4eugeozXQUYeFTmymrHF6dqoNhTKkcUBEKEguGs28B4foSAwseYMICYry2RmFYSBU+fCyYvOI/o5Wxi4dTaSq3bXAfDyzRtWvY14sZgwibj147BLkzQxjO7ahkNqmoacHZHTI6Okh503jOVINqEg+LcQ94mjq4rZuw/44qij8Ysjo3I4Y8GMgqBVnlAQjEaw730XCgKzTTgDiMnKMpnZxZMjs7PneNxgREZyceQgUL6PGRMWDOdNdpZBVGTkysUpywgDDg89mrmrN8D6PYcMWejJcPfRP4aRHYn5iE4tIX2KZIbl6BEIBcEfGbILIPsATnKl75iJFOmsHM5YkK9UDqG771EG7r6FgsBped+nEQoCs404A4jJyjKZ2YmEI/OaicMhQoTwmjLtwPvGKYz7xvE92kOKRL/o1osjB2VOiTzGIS9vJa5cHHnyZ80IPZrW45CapuHIGQ3fny/TeX9OBXJ4qJ0smRVUKAj+iO3EsTOZMXa0FlIzuJOrZXK5zEmuKgjK1wmc/qQOXS1OEDit5Fs0QkFgtgdnQDBZWSYzoyC8ePUa6nQfaFiWEU9OvSOgL3+6f9dLHB6U11sulmU5uXIZguhHYIQll4+ajiNnixoVoVyhfC63gSt1EAqCP/zrdu2HeWs3s5rcFcw/ffoMldr3dLkcTh8b1LYpZE2bSiqrZpd+8PrtO8NylXUTCoIhXD5HIBQEZpNwBhCTlWUyMxNJ3R4D4fnL14ZlGfHk1tvV3UlwUBCiRIoIK8YPNcTcDMFbDG5lFCSH+LmrHY0s853JLhQEhYKwGxWENcFXQaCacuYGZb8cPmshHDl7wbD7G/VlQwaCwG0ICAWBCSVnMDBZWSYzM3C48hrx5PJx5uCIyyNVkoQwtls7y/iYzciVywzfFeOHQJRIkcxkcUrrLgPDPUdPwoRFvxvKleyX+DCxV0dDOi0CoSD4o7J+zwGYu9o4uBFHuXPWGB/xBKFyIJwgcBWECOHD4+nicKkKkxavgF1HThj2LaM5yZCBIHAbAl5VEE7+dV4S/Jeff4K4cWJL/y3/BqFCQbYM6aTfzv19BT5+/Cj9d7aM6aV/X6EV/JXrtmAh8m/K/EkTJYSY0aM58lTQ2stR/Pb46b9w/+GjADy10PXEYmK2Fc0MHI68tdGlcW10bewsjVuwDPYdP20oasKf4sG0fl016TiyUMZ42CfmDuHdpxoKxCDgymXGURIVa6adjMTkymhUJifQkyyLES89mYWC4I/MgROnYcz8ZUbNK323ijfl9aaRovKKgcrmxleR67cAr1zW4NWLUdLD4+n//oM79x8EmK/luT1tyuQY1jqiwxoQBoOXZU6XxuE3+kNeQ27dvQf/8/M0qrWuaP0WJ1YsSOTnKVJrXTGqX1D67lEFIXm+4nDt8E47HumLlpX+u0+7llCzgu2/5d9CoYJwbpdN4y5RpzE8/OeJ9N/nd9uO6U6duwANO9vu2uTflPknDewDv+bL7cBTSSuXo/xt0ap1MHbWvAA8tRrQXRO1N3jPXLEONu//w7AfUtQ/Mkxzlj59xjvOdq7dcXKxC4WCbEJnLN5KXLlowqqAYXW/YHhdTurWuDYUzO74BpyTz2rf4HpvNFNfK/L6ooKgXtQ49eIGWXJ2HXP34WNoPYTXl11REN7jM8eqXnrmqIUlp09tmj4G93+h8CXOQTxV2WjYBHp4rNq8DQZPnOYwX5Pim6GYzcHXmtlTIUWSRA5rwHeRI8OfG1fqrgu9R4yDTXv26a4rWmtNpZLFYHDXDro8q7XoAN1bNYXsmWyb26CcvKogBGWgOAOB6mdlsLubt6/x4xonWcXPar8yg5OZHbi76rFk03b4fetuw+ptmDoawoQJbUjHrW/N0kWhbrmShvzUBEJBcESEi7eVOUMu6c2791Cjc19WW7lqJ2RVQYgTMwYsHN4X9uNJ5Fg8kTRKruBhxNsb34WCwES5bIPmsHnRbCa1b5N5crC7mzeXn7sRL5EvJ7SrUy0A28u37kDX0VNYxXlzcuDiJMtExoJkNMhJFBiHAuS4ksq16grGsQBdKUE/r5V2EAqC9xWEU+gIbQA6RDNKsfD69beR/XXJOGNBS0F4+PQpNO8/yqh4aeN07sp16D1xJovWkMiHCboOHgkNq1eGdKlS+LCUPNE8eoLAEyFoUHEGENXEysTqTt7P0fVqXYbrVU+hrlX/N/gcqgY+i+IkK/hx+GrRWMGdm4fKk49WPS2fVf7O8llpB6EgeF9BmLJkJez447hhF8iUOgUMbd/c7QoCMeSMCepPD5/8C80HOEaN1RLISt8zBEAQWEJAKAhM2DiDwBcUhDZ473kH7z8DK+kNbi5+ri6qZurNlUlZpyZ9h8M/aCzFTVYnu69fv7IjSHJlMUNHLxnoRYOZJBQE7ysIFdp2R9uYr4bN1BOdeOVDZ156iTMW9Ow5OIHEKF5Lqfy50Zanu6GsVseMIWNBYBoBjyoIaiNF09L5UAbOAPIFBYErp6eg7dW8PuTNnCEAe65cRg5/3Ck3Vyb1hMXNR7IuHtUfYkazva4xk5r2Gw6P/+UrImZ4c2nNTtRCQfC+gsDti0ZtyeGjpyBwfHWEDxcO1k4ewT5t4PZRX6QTNgjMVhEKAg8ozuDkKh9cXjzJrFFpTUZm5DKazKxJFTAXVya1PGSdTlbq3GSlPlzZuDJYoTMrt1AQHFGm1z/0CsgoTenTGRLH/8mITPM7t58YtSWHj7MXIZz8JAOXzhIYPpJJKAjMhhAKAg8ozqDhKAhbDx6B6cvX8gr1IJXWZLRqx15YtH4rq1SjyYzFhEHkCu7cvCRG7szpoU/zBgyJ/EnM8DfF2ATxGtzxRcCdHzcJBcERKe4rlJ9/+B5mDezBhdmBjttPjMYUh48zBWHastWw7dBRp3UQCoKlJg7UTB69YgjUmrm5cM4A4iziWmK5izeXj5uhCcBu/rA+EDdWTIffuSGLKVPGlMlgWMeWnhaTtZvRa9PWg/EU4ZFnThE27TsMs1au93j9jQoIFzYsrJtibFQm8xEKQkBEuWPSaAHXaysOf/l431l7c/gY+ZQw4lG7THFYtsXfL46ePFaxMOrP4rt5BISCwMTMqPPLbKx0bnfx5vJhVtky2XeRI8Hv44YEyG9GPis4mhWYK4+rhpckV2T08LZyAi9OQ/k23YGMFH0hmWkHoSB4V0FoMWAUPHjy1LCb1C9fEqqXKuqUjjMWXFUQDAX1IzDT57g8BZ01BDyqIJRt0AL9IMyyJpmP5eIMIL3dplFV3MH75es3ULuba+/ujeQ0811rkA+YMgdOXbrCYkOe1+hFgyeTq7i3HjwGTxH+YYtIu3HalRslrlxGfNzx3cxkLRQE6wpC06rloWKRAqaajNtPOG3I4WWkIJz5+yr0m+y63xuOvKaA8jJx1yGjbH4Q0PVzUE8eVRCEDQKve3AGp5Hy0Xn0ZLh66y6rQKsDcMiM+XDs3CVWGRS/IHTogN79uHWlQmKjB7ZF6IHNU4krizO8uDzkOhhhb+Z5oxEvZ7hx5c6SJjkMbteC1QRCQQgIk7s8Hao5v3mHvkU6u8+3CKc/GCkIJCOHj1FncqVfG/H2xndhpMhEWSgIPKC4g8odC1WDiqWhWolfeYKpqF6/fYtx4PW9sSnJ8+Ob6x749lqd6JSDTju4yexJAgWvIctxuuYwSu7Avd+UWXDm0jWjouzf29etBsXz5tSl7ztpFpy9zOPnykTKrbuRYqqsiFAQtJuVi3WGFElheKdWrL7E5Tm+R3tIkegXQ54cfhwFoUGvIfC/5y8My3NG4Eq/dqlgN2UWCoKbgAxKbDgDyMxkqqy7O3i7gwenPbjlOMPCDA9ZJrrDnzWoB/oUiBpAzJcY6bPLqCnwCKNzKpPRRMOVw118ZNncoegVzJ4ZujWuw2kyTRpuGGkzfVooCNrNsXLbbvht43ZWW+XFFy+9DF68cPutmbbj8OQoCGZjlmiBYjTeWEAKIrcg4NErBrdI6CNMOAPIzIB0p4Jw6cYt6D7WFuXMKLk6+Lg4OMNixu9rYcuBI0aiuvzdqK7cuhjxmb1yA2zcd4gtr7NnbVyZVqARaBTGKYmeUOMWLMcw3qdYMvdoWhfyZ81kSCsUBH2IuO0qc2hVkzwP5sFrOopxCnAfo9t2HT0V6BSPm/q2aAi5MqVjkXPk4ygIVBiHlzOhjMYbq0KCyC0IeFRBePn6NUT77ju3CBrYTLid3krndpU3N79VBUaJ/eh5S+DgybOs5hjcrhlkSZNSk9bMDpZVmAaR0W6MixunTbm8ZDE3oI1GGJWNxtG/LsDQmQtZ1eXIZMSIKzNFiqSIkUZJKAj6CF2+iQHLxvAClhnhzP1upo9w+gJXQTCjfGrVxYzcXCy8SUf2IRHCh4ewYcJ4s1iPlOVRBUHYIPDajDM4nS3u3PxFc2eDjvVr8oTSofqCz+/I9zo3ueM4nVuW2cmGixtnwlqNjqAWMh1ByXKq+ZZv3Q3IXwQncWQy4sOtP1exFAqCc8S5cROM2o3zfc0kdHIVnu/kitMXuAoCycfhp1cPd/RtDkaeohE2CExkhYLAA4o7mLQGzucvX6BiW54XNq1dK09CRyquvEYLizvuK43kXzSyH8SOHl2TjFsP7oTF5ScLs2gEyhbDXzZu/rTJEsOoLm2Mqm74vXwbVEi+8hSSZWMHQbQoUZzyFAqCIeQuLZzG3G0UFBipbKG8XHKJjtP3zCgIrpwQcsebqQp6kVgoCEywX6G1etTvnE8qTFaBTsYZQEYLol4lXOHdeeQkuHrnHgsfdw08rrwk1Eb0ZRAafRroJU8rCc5eQXDrwcXNigdEmffnz6joteMpenOH9IJ4cWKz2twZ0RI0nPsdDeg4iTxjkodMZ0koCBwkeYsxj1NAqtIF8kDrWpVNZ+eMBTMKwv3HT6DlIONrKS1BuePNdCW9lOGt3xVDGHHF4CXEfaAYzgAKDAWBK5dV2bSgHzV3MRw69RerVciXP/n0N0pm6mHES/ndmwoClWu2HunxadsIfNo2buEy2HfsNKtq7pxAzchrVK5QEFjNJxGZwZ3LtXODmvBrrmxccgc6jjxmFARX6mjUzyxVUGSyhIBHbRAsSeSjmTgDyOoi7Apvbt60yZLgsXRrt6HLLdcMJs9evIR6PQe7TUajsrl1MDNhbT98FKYuXW2qDsSfK4tRnUwVbHKhMsLh1Zu3UKsrz0+GES+jetDulHapRml01zaQJmliIzKH7436DIWn/z03zLNq4jCIFCGCIZ0ewbaDf8K05Wss51dmdBVPTv8b2qE5ZEqVgi1v1Q694f3Hj2x6mdDVupguUGTQRcCjCkJwskHoPAqP8m87P8rPlSEt9G3VyHR3q965L7x9995pvgq/5odm1SoEoOEMbHcvKsSvWqc+8O79B8O60h073bWbSeRohSZp7v24mje3zKodcQL74HwCq1SsIDSpXM6M+Ojhri+QBz1uoglx6yGMxLnMOBLn0jGDILobr+1OXbwMA6bOZYnKmbg5/dHVhVUWllMWR2atynuSt7o8MydyyrzkqXTD1FFAp2SuJs54toIlB0el7FzHTq7W15P5hQ0CE93gpCAwqyzI3IwA2SgMmjYPrt29Dy9evQ7AnSLVJYgXFxpXKSdFgRRJIBCUETiMV3dLN++AexqnI/R0LtHPP8LQ9s0gEjoOE8k3ERAKArNd2vUdAlOGmts9MlkLMoGAQEAgIBAQCPgcAuNmzYcKJYpAskQJfU42swJ59IrBrDCCXiAgEBAICAQEAgIB30BAKAi+0Q5CCoGAQEAgIBAQCPgUAh5VEIQNgk+1tRBGICAQEAgIBDyMgLBBYAIsFAQmUIJMICAQEAgIBIIFAkJBYDajUBCYQAkygYBAQCAgEAgWCAgFIVg0o6iEQEAgIBAQCAgEBAJ6CHjUBkHAHvQR6DdmIgzp1jHoVyQY1aDn8LEwsnfXYFQj71alF+LXv1NbiBRJ+BLwBvKiv3oDZc+U4VEFoXqL9rBy1mTPSC64egWB9EXKwfk9m7xSliiEh4C4uuPhpEeVIn8JOLFlNUSPFtU1RiI3C4GQ1l/7jBoPdSuXh9TJg77jNo8qCCGtY7BGSxAjEgqC7zWYGFeutYlQEFzDz2zukNZfhQ0Cs4eEtI7BhEWQCQQEAgIBgUAwRUAoCMG0YUW1BAICAYGAQEAgIBCwIeDRKwYBskBAICAQEAgIBAQCQRMBoSAEzXbzmtTCBsFrULMLEld3bKg0CYUNgmv4mc0t+qtZxHyH3qMKgugYvtPQViURCoJV5DyXT4wr17AVCoJr+JnNHdL6q7BBYPaQkNYxmLAIMoGAQEAgIBAIpggIBSGYNqyolkBAICAQEAgIBAQCNgQ8esUgQBYICAQEAgIBgYBAIGgiIBSEoNluXpNa2CB4DWp2QeLqjg2VJqGwQXANP7O5RX81i5jv0HtUQRAdw3ca2qokQkGwipzn8olx5Rq2QkFwDT+zuUNafxU2CMweEtI6BhOWIEXWe8Q4GN6rS5CSObgL23XIKBjbr0dwr6bH6tcN8RvUtQNEFsGaPIaxknFI669CQWB2q2kLl0KbhnWY1IJMICAQEAgIBAQCQRuBNVt2QO6smeGneHGDdkVQeo9eMQR5dEQFBAICAYGAQEAgEEIREApCCG14biykN1MAACAASURBVLWFDQIXKe/Rias717AWNgiu4Wc2t+ivZhHzHXqPKgiiY/hOQ1uVRCgIVpHzXD4xrlzDVigIruFnNndI66/CBoHZQ0Jax2DCEmTIPn/5ApmLV4TzezYFGZlDgqBiXLnWyqQgHNu8CmJGj+YaI5GbhQD116uHdkCoUKFY9EGdSCgIBi3418XLULVFeztV6NCh4crB7UG93UOM/Fdv3oIy9Vs41LdU4QIweUjfEIOBL1aUJlp1unZ4py+K6pMyVW/ZEc5cuOQg24mtqyFGNKEoeKLBspSsCK9ev3VgTZuNiBEieKK4QOd57fYdKF23mYMcQX18uv2K4cCfx6Fpt76SQkCKAaWVm7ZCn1ETIaiDFeg90AsCfMFTg1QFSzm0HxVLi1PzOtWhW6umXpBCFKFGgPAf1acrVC7lrySMnTkfZi9dIe3ORHKOQIse/eD42fNwZsd6O+G3bwAp8hcX85IHOk/ucjUgTNgwcHjdMjv3x0+eQv7KdYIl3pev34RyDVvCpX1bIVy4sFKdd+4/BG36DgnS9XW7gmA7TtqJx0mOva4Xvqe/fP0GrJs33QPdUbB0FwIp8fh1/fzpkDp50gAsxdG2u1A2x+fc35ehYadecHr7Os02+WvXBnzTH8kc0xBGrdd3Dx07CZ0GjoCT29aEMEQ8W109vLsPGwN3HzyE36dP8KwAXuaud40ycd4iWLFhK/y5cYWXJXJPcR5REPROCowWmLfv3kOWEhXhy9evkDRhArj/6B/48PEj5MueFRZMGOGeGgsuThFw1kZG7Seg9QwCdFQ7qnc3KFYgb4ACpi1cAn+cPAPLpo7zTOHBgCvNKxmLldfdyYl+7d5GvnP/ARSt2ShE4R1c502fURCylKwE9atWgI5NGwborfKx96ntayHad9+5tzcLbg4IBNeOHpSbuUHHHpDkl/gwoHO7ANUoXqsR/Jo3F/Rs62gzEpTr627Zv+FdAhkmam1cvuJmJGWBkkH6GNjdeLnKzxmmz168gBxlqgU7vIPrvOk1BaFpl97w9v0HWDYt4E4nFQ7Qi/u3Qhg/m4WPN29D+CSJ4N+REyBOz072/pq2cBnJol62bXC1I4v8ARHoPGgE7P/zGB5n+9/VEtXFq9ehYuPWwW5gB4U+4GyBE7tfXgsSTlobDFIcOjatD60bCI+vPCR5VIT3lYM7cK52vGum39fPmwZpUybnMQoiVHrjkObTE3+dh0Nr/W0xgkiVJDHdriBcwoWkAi4kl3DBDxfWZqwx47flMH72As3F5ezFS3D/4WMoW+xXANT0X6Gbyocd/X3/R0iREj49egjJzxyVeIkJ0fPdiyZNWpQu7tsCYcOEgQFjJ8PvG7eaVg6uJEtrFzbl9YueFzwYl0D+7Dfs2ANnd26AKJEjweu3b6UnqD1aN4WmtasH45q7p2ryrrZP+5bQoFol+PjpE5CPD0rCyJOHsXo8y38n2rAaIqRN7cDk0+fPkKZQaVg5YyJkTp8G3n/4IOEdIXx4uLB3M6/AIET18J8nULBKXbi4dwuEDx9OknzN1p3Qc/hY0/OmL1Xb7QoCVe75y5eQvXRVez2jfhdF08BKueB/ffUKrmXOJeVJvH0jhMMj1VDYma5lzAlf37wBeYG5duuOjX/G9L6EY7CTZfDEabB49QapXokS/Ay7li9wWsc3R47C/YbNIOXV83Y65YTy4+gREK1yeenb494D4Mu//4OfZ08Ndrh5skKvcByQdTjZ5ZCSQEaL4jTNHOI0idNkTqlfh1ZQH5UFkfQRuJIC51m8hgkTLTokWDxXUgSejpoA/82Zh2P9HGAHhCvJ0kHKaxdwuxnQz0Hu8jXg3/+eST4QFk0chTEKMgVbuN+g0p4JlXY5RYoYEc7t3hik6+sRBcEMIpPRyrN9kwbS6cGV5NjRrl+QOpycImfPDm9PnwbA53eykiBOEcwg7HlapSIQKmw4+Pb5E7vQlJdxksHnUCIJBAQCvoXAgxbtINzPP0Lc/r3geta8ELdPD7uSfzVVJkh28g8IjZs/SpKSIE4JfasB3SBNoCoIdIwte9eiRSYUHmeHChcOvr5/71C1lFf+gispMwoFwQ0N7gkWSgXBLH8xqZhFTNALBLyDwPWseVAJOGw/GbApAXhS4JeUf7/avgv+mzkXEq5f6R3hRCleQSBQFQQ6kokSObJU0YftusAHfO/98fbtABWXTxUSrlsJEdOnFXYIXuka/EKEgsDHSlAKBIICAo86doOXm7dKospKwZcXL/EkIY/970/37sOtYmUhxeWzEt21DDkg0cY1EC7RL0GhikJGBgKBqiCQfNv2HQRy4ysvMj8M6AP/DBrmIHr8OdPhfrPWqM0egTAxogsFgdGwniah48efZ02xt5uyvJ+nT4LvihfRFOFRp57wcpOjkRLdXz4dMQZiNmsMYb+P42nRBX+BgEDACQLf0IDzRs4CkOz0EXiLL5oetO6IRuJ/SjkeNG+HV4ifIf78GdLfV1NnxiuI3hCjVjXpb3HVYNy16Io8c7rUsHLmJHgyaDhELVUCIuXIapwxECgCXUEgi3myIv509x7c/LUkREyTGmK1bAYP23eW4Eh57TzaJqSHJHt3SIaLlOavWAONa1QJBLhCVpGN0Htfu8Z1IQue2ijTvXqNpYlDnSKmTQMJNyiPGNVGS+jb1i8p7UyUfMSVQ8jqY6K2vofA54eP4PmylRCnqy2ezpUUGeDnaRPhO3pp5qcEJD/9J4SOFlWhFNiuHr6iAfm17Pkh5RW0LRJJEwE5pgr55TA6fU1x/iSECkQvqYGuINRq1QmWz7C53VSCFTpKZHy98A5//QZRixeDHyeNRfuEsBgnoCRcPiACP7lj7D149BgKVasvsdJyIiN35DBoG3L5wDbF4u6oMNCHKPnzQvwFs/xojKK22RQFLSUhwYI5EDl/HndUT/AQCAgELCJAc7GevYE8duXv39CAHPDUIRRa7VO6V6cxRC1dAmLUqWmx9OCdzYyCECZ2bEh27GCgARI4CoLfiwW9KwPqnOET/AJhf0kAb48csT2hwTR6xlxIgzECyhYtbFcmxI7TWt9RRwZUKwFlG7SAKzduScz/Rp8WYf18WkjKRJbc0k5BmfwnEyPlQM6lrSSI9rTWniKXQMDdCCiVhG/orvpq+mx2peHdydNwt2Z9ByVCWb6zp4/uljOo8ctUvAK8eftO2pQZnSBQ3QJzTvS6gvANXyhcTWe7b1FWnBYscswTHl8xaKUcZapCm4Z1JCcnlO5WrwvvTp+RXj6kEMdZpseIVuhgPSZapwuOTlNky2aucuCvJNwqVg4+3rIpIrHxailO146m6yIyCATM9GcuWiE9+uyrDZvh6ZjxkOTwHgkyMiQn3zQ/jrPFxfmKnnFDR9QP3SzsEbR72rDJM2DhynVSZNEIz57BzUIBw7grc9I6qVYkIqROJRmEgtkpl9v5/ei8qiB8fYnOkLLYnCFpaUWLV6+HelX9HU0o65KrXHU4usnxCc3danXg3Zmz0tFWigunTFY9ZJNzJ1R6hqr2NPdkyAh4tmiJHUDzpwf+CgL9l/KqITC15ZDdI4J27eX+nCF1SpcrQs7Y3vk9tQ7pSgI5SkpO/g4U9gbJ/zoOdAVslN7sPwiPMMx2YB6RG8kYWN+pv/6CPib2/L5Q8v/jLNGc+HTYKPhvwW8SWdx+vSGml1yDe01B+IpPZK5lza2rHNCHMXiF0K1VU02sStdrBlsXzwnw7V6dRvD2GHZYdNiR/OzxwGpvny6X3MzKHvfIC1+6X8uy5Y0VIwYc2+ynmH35Co864fOnrf42IKExeFbys+QG26oqiw6yFI6xwsSKBfHnzcLnrGnYMgpC5wiQvxFK9K/0X/gvXSkFp6S813W1XlWatYNzf1+xswmJSsK1W7dhyMTp8Nuk0dLuVWmPYAbfqykzQZKDuyDsD3HNZAv2tGbsEJIdP4TTa2j4p/9g+GnKeK9i4xUF4evr13AtU06nygF97IGxwkf16aYJQN12XWHJlLGa3+43aQlvDhyC0FGj2mM2eBVFHy5MaWjYs00zGDZ5pilpB3VpB7Ur2XzWfzh/EW5XcvT7H7dvL4iJVz/uUhBk4YLTSQL3tMZUw7iBOCx6sPx7v7/xqRtYBhoLTygII3p1hl4jxqMyFTrEGUbLeP6Nxsmh8OT3ZoEikBwt6s0mehJ5u3QlSLwz+MVfMIuFkt6MghAheXJItM0xeJ4rZZvJ63EF4RvuWK+myWyoHBBB0259Ye6YoZryd8GoWOMG9NKt24PmbeD13v1CSVAglK1UFXiBMS5cSWtmT4YMaVJJLN4eOQb36jd2YBdv1DCIXqWCUBB0QO49cjys2uy7r24OrV0K8eJ+70oX8Ym8nlAQ6OSAgu1Q0J3oUb+Dk9vW+kRdPS2EHD9BLodwuFe3sfTM0ezR9rcPH+FujXrB3sPilj37ITaetuZixpqgQGsUcI2wvZYxhxRvSC/9MKg/vgip4elm1+TvcQVBNq7g7AjzV66DYTGXBhCUIoGtwGiCsoGiHlIP0JnS630HIMHSRRA5Z7ZAAdRXCqXTmLXbdpkSh2KttKhbEwrkyi5NiP8+ew7f45F/8sQJJT5fX+FJUGbbSZCcwsaNC0mP7HWrghApSxb4ZeViU7L7KrE7Fy531rFD/6Gwde9BcBZIzZ3leZqXO3GWrxjkq4UiNRrA3QePIFWyJLBpobkTOE/X2938Hz7GqIRV6zqwpcBgFEXUylXD13fv4J8+g+HH8SPdLapP8CPbuP/hPKlMY/p2h4olizqVb9gkNFRctQ4uoWH+lyvX4E5Fm6MpZYpesQLEGzs8UOvpcQWBIoFRxC9OoucfZNkpx2eQ85gJzvQFGytMzBic4oI9Dfdoe9uSOZAskU0J4KR7DZrC2z9sntUo2e4nrdgg4I249OTVPzInR5HkyOgrNO5cuNxZJ7uCEAUjre5Y507WgcLLGc5ke1G0ZkN48PgfiB0zJkwZ0tfu/OtWsTL4iua2g9G0WkGQ+niBkjiVfYWa5UvDkO7B96WNjCNtFq4e2unYloqAetxG/vr6DTxbsARit2vJzRLodKfxKjU6GmUmTejcZXTXwSNhw07aHAVMl/BpeDjF03AtGsL6B/Qcexg3xUpDxbBxvoekR/ezcVDGNGJnYhJ6XkFgCiKTkTEiWREr05WD20VYW5M4EvncpSthFBp+6qVY0aPDsS2rLHB2dGrlyiuG6zkLwpf//U+SIUqB/OjCNXjt0LQWLmky8DMcJOVZDpGt9/un+w/sT6HsYc/TZcNnZuRIzJbk37Wu9MiRzdWUGRzoQoqCkK5IWfiAx9zqlCNzBhh46CDQAqZWSrUUBMovt+X04QOgWIG8lsaNL2cqWqMh3HnwUBKRTk9u5CoIn//9V/o7NL4US7hhNbw7dQaeLfwNEm3lKZWfMbR26ir1oEKJIjC2Xw9frj4UrlYP7j/6x0HGtg1rQ4emDTXldrYB03r9pWaiZYegFzZbS4AU+YvbpxH6zinTbAP4nILgSW3ILDhBnb5glTrw8J+nmtWYNKg3lC5SyFIVXyxfBY/7DbTntfmi+Mvvb+5JQkBHSRQqWg78YkkwH8ykVhDeYOyR+81a4bXMfviGzlJuFi0FKf4+C+/PXcS72jqQZPdW+IynYHer1Ybkf51A494c/soE1k9ezOi4N97QgRCtaiW4miojxG7dAr48f44uclfYUSDa5/gc9R98lionOX9IUBCyl64Kz9GhV4s61aGr6nXU2yNH0Z6mieZzaz0FgTCU2/PwumXS7i+4pLfoCCljsfJSdTKkTgFr5kwNcKXwbOESeILP7WhVUrpa1sPg0LGT0LhLH1Q2diBuNpf66tNhX8Fv8+590Gmg/zhRyqUnt9EJrdHrF1dOF52VbVSuGcw9riCUqd8crt68Lck0ZWg/KFkov1P5tCo+olcXqFqmhGG9pi9aBhPmLJToSv9aACYN7muYJzgT6HWiJAnjw46l8y1XXcv7V8wG9fB9rrxDMFIS/JQDulqQd9J+0kQtURx+mmZzvR0cknoSuJYhO3xF4yTlQh8uQXygyHiUlL/LfxM95ZP/ll/taNHaPNzVc+D1Co0kH3bs4vBbSFAQCPv0qVLA2rlTA3Ql6sN6fu6dKQjESG5Tuj8Op+PYLaj1XeVckSZ5EtiwYKYlmwO53qkLlpbsW44rTihJSXDn4uVOjJ0tuOS8j5z4qZOzPHS9QNcMWmnIxKnw2+qN9k9WMHFW9l+7NkBkN8Vv8JiCcPf+QyiC935ayRkgWhUf178nlC9uCxSilejUgYI+aSV6xkXPuUJaatd3MGzfj7HcNZKVDqlkQ54wySOmOkUtiYv7VPmdrpaSoAjWpKEcEL/gboOgNtqlv8Oiv/XPftcsWos+4aLMd6dKLXj/1zlNZUJNK7eRulxZQfgObRDOBEMbhI4DhsGWPQc0FyTyuxEld054P7g/DCWvdhMcDejUfhCczR2ujiVfmJfoCfmxM47BlahedypUg/cXL0G8kUMhuo4DO7X8/z1/ATnLVoftaNeUVBX2mRQESs485gYWHlZOA5at3QgDxgdUPqkO6lOHh3jVUrCKo/GnXNcTW1dDjGjR2FU/cuI0NMCouHrpt0mjIHdW28tBV5PHFAQrgFNltPKRUVFJDAmtl6yW5Sp4vpb/06fPkKZwaadi7Vg6F5IYGN9w6kULTqxmTeC/OfMCkDs7fnyO1xP/9BvkkOencaPh8cAh8NP40RDFSTtz5PI1GvUJwvXs+eALuldVKgLhEyeSThDozbjy99CRI0PycyekKikX+IdtO8Gr7TttMUrQmkz6htc8cgQ9rZdD+gpCZMkwOKgnNc7FajWC2/ce2BUEqf6IVZyObeHfCVMknJU+8ZX1n4d9dOS0gE7ZtDAKDgpC6kKl4PNnDLikSMpd86uNW+Bh5+7S1+/RFXrkXDkgYga0o1EZnzfv3h/2/3kcF0fHZ71k5Z+rnOMzPV/DzdkaEjlSRPhrl/+OX4lT7TZd4MRf5x2wo5cu9OKFUveho2Hd9t1Oh1eKJIlgy2+z2UOQjGXJaFYv/bFhOcTFTYc7kkcUhHrtu8PR02edyqdneKjVUGvm4Ft89D2tld6hP/AMRW2OfPTSkG7toWYFvvdAdwAbGDwW4bOZofh8xlly+8DEzkruWPUSOfmgu/HPT7VtIeKNHg7RK5MfheCZ1AvXu5Nn8AqgLiRcvRzov5+MHC0t7B+uXIXb5auikeZs+HjtOjwZMVpyHy5HyNM6eYheuSLE6d4ZjckKwA8D+0EMfKJKSSgIAO37DYVtaO8h9/crZKRJUQcxSUahuLilwkn2C/ZfK2Ni4LhJsHTdFkt5famn046fjPNObl2Dm4syAUQjj5s7l81Dt8A/Sd+ob77ef0hyTPf2qH/I97Lxfoa6lcvBgM5tHXjU79AD/jwVcC34PnYsOLLhd5+B4vDxU9Cos7afHU7/ePzkKb58iAaRMDbF1Zu3oGz9FjavpczEKUPJKkjbIBjt6KmiO7DTJcFojVpp+frNsA7f8CfCu9ne7VpAjOj6xy/knnk2Wus7Sz/+8D0cXBPQvwKz7YIMWcoCJfApln63pEiYGxY4VyCsVJYTkUyPb3C7UlDXU/MVAylU9PwXUyi8q0xx2Wbg6fiKAU8ErtqOfdX4EmbySYStvFB2V7hatFq/+V8xBM8TBEKFsC+UOwfMQedr9JSRnjRGzpUTEiyx2d/Q9/w5ssL88drGac7GQnBREAgDMiKUU99RE2HFJm3vmvHQKLNE4fyQOW1qKKMwcCYeF/ZugggYyEmZ5CsFPRwPrFkCP/mQC+YO/Yehb5ADDuLOHj0ECudx9P0iE9DVNm3KZGd0p89fgiOo9HPTsqnjoHZbm22QWQVB7r/qstxtCOqRE4T0RcoBOTdyltzVOTbs2A1dh4x2WlbiX+KjFmzdKI/b4IFNZ6SYLZ82DrJl1N/tW5VfKAj6yLliqWy1PTj5QoKCkK10ZXjx8jV0xxcMzfAlg+PiZYugZ2VipnzBQUHoN3oirNqyHd1IOyoENpsu/SPsJrWqQs82ze1wXr5+A2q17gJndtqePq5Fz5M9ho/jdEPL+LOYWyS6//AxGp+GdfpKJSXavH1VGVhzikuZNBE625plf83h6vzwAJ9l/omn9bmyZIT4P8bjiGCKxiMKAl0v0DWDs2R1YGrxNFoYQ4ofhY+fPmEgpjLqhwF2yNyJubodbpUoDx9v3LDfoX/GI7cbeQrZyaJXrwbxhg+U/rbfw/sd9ZrqsUGM2NUJwFPVDQkKAmHnbG6wutuq36EbHpvLz3odWyjBT/Fg70pb1D1fTd/oWiVtFviG80WU3VugcN3msHr2JMjo51JdlnsOnsyOnhHQxkhrHslaqjL069ga+o+ZbI+Eyam/J97uc8rVotmGpwfys3Dy2xAnVkxNVmkKlYZPaC9kJlHUxl/i265plGnGb8tg/OyFsBu/J/T7/gafP1tN5PXSnckjCoLRwByIAYDq+AUAckdllE8p1fycPTdxR9m+yKNai/Zw9uLlAKJ5UkHQwkF5shDcrxL0+oGegiD7X5dxeb4MjTf7D5TYhE+YEBLv8X8idbMITkh37ji88LhbpTa8++svh98ete+KkTa3OfxmbwOFQyYqI6QoCFRXtfHu4smjcceVyfTQXbZuEwwYN8Wej9wPRwgfTtoNfkIjv+x4YvHezylTulTJYd3caabL8GQGMoIlnxlhoseAZCfxhZPioVGqgqWkjcWVgwGvF5RXBc6UKmfKWPwf4+IiuEjCqkqztnDhynV7VSuVKgqj+zjfUHoSF3oBJ0c8VZej9cLAaEMq85DCOa9Y5FR02tSlRduP7HiyqzZ2dKXO7toUe0xBoMppaVrN8ahPL6SzK4BUxk53/u+rDizoLSi9CQ1pqVWvgbD70JFAVxC4uPceOQ4DGu3AOBA1oGvLJpJLWzk8NZeHr9KpFYS7lWrCu/P+Vs/KVwthv/8eIufLAy/XbYCkh/bAqw1b4MlY//CuRPsK74cfdupqry799hH9jNwq7m9gpn4qmWT/TskTY+S8uSHBIptnzZCkILijb6RHj4y0+MeOGR2ObvL3Pvr0f//BkrUboFOzRvZiKOjcAbTmp+RtpdxZXY1iKbzBuAmZilWEuWOHQkGMxyIn+cqhY9P60Kah9lM9otVbOGUMbhUrC2HQuv4XVBROX7gENVr6u6y+cnAHjnkj/ynuaElHHpzFXtmGT/79H+StWIslCLftOTKwClQRcct3xtujCoKVSok8riNw8NgJaIIezNRpXP8e6E+iiOsFuIEDZ1C4o4O7QVSXWKgVhC//PYO71evCx9u3Jb60mD8dOwn+mzlb06/B9Wx5pVcgMq206GDodNoNki8KWRm4ikfGtDv7qviNFgR6Ohq1fJkALxvsCgI+pTyz0/+Z4407d4GOlo+jn4V7Dx7D8ukTIFsGfCLo48mTVzkN0BL/CLoYXjJlDOTMnNEBib8uXYZ5y1fDZHyKrU4kU1g0Qv1bx2GONyF92LYzRMqeFaMx1jYstlhNfCKKfmxk40WugyO1P5rvotgMYD8//Rdu5C4ovcohmmvps0n9Vj0HBMZ458xDZEhJNnOUpsxfDJPx/0aJbAIWTx5jRCZ958jAYqQiKpwnB8werR0dmcvPrQoC3cuQu0460qtXpTz07+T45IWEIi08R5kqeE/1AWqULwVDu3fiyhqArjoepZ/Bo3Syrj2Irk+19M9G6FDiMDqWiBUD4w5sthZ3wLKAgZSxessOcObC3wFKj4hPcM7v3uR2qeQOvhStcnNk4hlBcgZFYEwY7gZHb+FSPkW8ljkXRsp8ZcrxkeysSnl1cw0dWMkKwmcMTHQj36+6PLUUBJI1Kk7qFUoUxV3xRlgxY4JkS0TW6b4e0ImjINDdrtYd7Xt8xx5Rx3hXPgJuioZ55dBZ27+o4BXI6b+7pv6idg//EqOekh+Grfi2PVf5GpLyUCoQ/XtIVwtpMttfxXD6uO2tfSmoj6HcjyM+3CiW42bNh5mLf4dOTRtA64Z14HbpSvDp7l1IfuGkvVhyVKWlICT46Ue033B+JM+R3QwNZx4ifvJcVAyd/5HyZJS2Lp5jj4JrRCvLQPW/9/CREbmp767OoW5REOiZR7ZSVXQFz5QmJfx9/RZ8+BgwaAplSpb4F9i2WD+okJpxNjSIeYGDUCuRIhANQxWTkxStREfXF/ZsCjYuUpV15DhKcrXDqDHd/+cxaNatn27bK48l6QFmpcat4eJV//vH87s3AikuypS+SHn7K5ig/kSVoyDcxrvrD1evuFVBIAO0q6kzSY6WyOGSrqMkvxME8hkwZOJ0+9t02/M3WzQ/5X+bmp28SKyH82f0fZAa79fV6cDqJRAvSiQMX54Lj7yXQKRs2p7niK8ysiH9vXP5fEiMT7AplWvYEm6hk6sLezbbiyAa+a4+NRq0fcYF2t3jzgy0RlcLerw+4OlIpxHjYToudmYSKUe7li+Q+ly8YQMheo2q9uyvMebBg1btJSdfWoszucUm99jeSBevXoOKjdsYFqU8QeAqFJxojnLBdAI1ctpsSQmTHSwZCcWVw9V+57KCoDcAjSqo9Z1TGS4wRuVzyjLi4YvfjfCpUro4jOztf4ftah2MylPirDYGsh1hartkrtGqI5w+bzsFiY3hu49ucu7rwtV6eCo/R0GQozUm2rQWIqROKU2sMWrXgB/QFTAlLcdHRicIcr4wcWJDsqMHdRWEKKggnMUrhhY9+kN2PP1pWgvd6+ITZXqqvH/1Yvg53g9BVkH48uUrpCpoe643pm83qFiyGFqpP5FCP29EfyBfipaG2C2bQRz0DqiXqP1ObEFXuDq+WLQUBCUv+dj92OaVeIrp/TD0T4aMwuuoT/DDoIBXjpw+T/0sxYXTHFIHGrry+mXlEoiIPhPkdL9Bc/hw+QokPXYQmnfvpNmyMAAAIABJREFUB/uO+DtaUmb21txMtgRkU2CUurRoBC3r2ewOjOY7mZeZOrx+8wYyl6gEBdDuY97YYUbieEwOrYJdVhC4gHFqvR3dADuLwb14zQYYPME9lsFmTy048vsCDac9rD7vUtePrJHPqQxDiWYudnKlkZOc7y0aQWUsZvOaqK8cyNQYMc7Pd7uZweYLbaCUQUtB4DozIj5cWi06OkGgkwQ5JfvzAITxi0AoXzHICsKUBUtg8jz953nk9Y683/lq0sLZ2bXDlRQZIBQG4Ulx8ZRulZbgfDMI5xtn/c9IQZAXlWQYl2DbEv4pqbtwtnp6IJcvXweYkedm4RIQo05NiKUIk3w1bVaIXq0Kevy0pqiYKZ9LSy83vvh513SWR9n+nPnVNr/ZTt+4iXNFpjWvGPE3K4ean08pCEbAchvHCDT5u6vgccvxJt3A8VNg6VpjOwNX607W23kq2Fz7qpMe730YYpf8tdPTsAt76UjWudXyyKkzYd7va306TKxR22oNfLrztie88oqY3mYE+ObQHxin4TlEQ6NCOTnQIlwRM6THQE2Ovt/p/lzrN+LxAa9z3hw6DDHr18UFMaydr1pB2HP4T8kr3G+TAjody1S8IkwY0BMK581lVN1A+67G+eIVPD5u0kZzon4ydCQ8W7jYMDAY2VNRGGR3KAhGc5sngCPPnCmvOfYVs+Xo2QvIfArkzAqfv3zD/3+CTGlSQ92/L0uxRuIrroyJB7kMDxf3e9tzQtX/bb8hR+lf9DCK/4YKFx4S79sueRr1VOKuJ0JBsNgCg3ExWsxYjMyw1xuMZL+Q7lf3xlOgY2s6vg5uiTp+nqyZ4Ps4sWDDjr261XNFSdAbXE1qVoGebVsEKFMZMW72qEG42ORmwO5/itAGra87NmvIyONbJGZ3Bt6S3l9BiIRXDBvwJOgKdBowHPZoGIk179YH0uHVR/vG9b0lnuly1DiXrNMU6EWG3MfvN8Q++fULxP9tri2MMd6BZ0TFh0619MYBvU8nI0UK1EP36skTJwwQ+ZHKJf/751TGv/3GTIS9fxyDzXivnLtCDdypWov5YBoIvwzP8DTo9d59kMCFsO7E6nbJipBo+waohMrWBVS61Ok4Xp2QkQap+tnLVIOtL5+h3Yvtiac9+bkVl4w5KMn/GlTOyumFGbzMKghHMJR6g476URTlsiNGCA/nFTYpHJnMzhNc2ZdOHYuG4xiHxGJy6QSBK6QZ2RpUqwh9O7QOkIU8dZF1sLuTK4uku2XxBD+jNjJbfzKmIaMavUQx4E9vt7lcVabOg0bApl37pJ/m4TvrAhgRzjj5Kwgd0Sq6DVpFB7WUpnApfNXjGCnPl+rQun4t6NS8kXQ3X6hqPem0Rp1mLfldehUzc6RjFE5fqkdABaEJKgj3HKM5+gkct18vfO5XF4O8lZe8/umNAQoCR6+t9L7LNjVGY8js5O8OXJVXC9ez54c4rTGmTSN9Hwb2MnH3fgVDsae8jpFCMX19+xb+Qb8qofv2gHyVAj6RVMZxsD2HDNh/rNbn6fCx8H3vblazG+YzmhtlBnL7yiHEjRj369AK6lerZETm8F02VFw/bxqkTZncMC9XdjLYP7VtrSE/PQK3Kgg0udCgMZPi//gD3Ed/0sqkNeDUgPRp3xKGTZ5ppijJMKl8o1aGZZliGgSIOZ2JdkkU1lQvbdq1FzoPGsmq7bxxw/EpWLYAtPIVw/exY/pZyzu/YmjdawDsOvSn6fs8lpBeJOLg70VxNPu//JxPa+ydOncRRuB1z+rZ/l4EA0tevXLVi7AtxHB1+/XUk5Fj4dncBVJ2+Wko5QkbNgz6KdAOTjRy6iy84lqj2f8o3C49BTRSDqg8KoeMPcno0xuJoqumOH8CQkWIINmgXE2TxX7V8ATDD8ftq++1kHbtNoxsCgLlv4NRRn9GA1pyfKdOrigIrzZstvnzQC+U0r9f0H0xKdP47wd0/vVi9VpIdvwwhNFxeewqlpxxqewfHHqSSTbuNSPf6zdv0VCxohQYigJEGSWuLGHwCvPyQcfw20a8ld8tKwjj8b3rDHzvKqeShfPBlCH92Vaecj4aYOrKqgcdPROi50JyCo1HVFdQGeGCpCyrUNW68ODxEzsvep4UAY+EgnMyi5OrWFBgLAqQpU7KOOYhxUhRxmDd9l2w6+AfkjMj6r90Jhs6VGjpb+n/6EUuNP4Pf8K/8b/wOynOx87YIjo6S5S/YfVKfnxt/G18ZV42/tL//P4t/WtBSIqGc8pE/URrwbtx+y606Nlf8hfvq0lrl67+7U6FapBwg80XStEaDeDOg0eGCzzxoGBGFPaYg5UWPsRjw/zpkCZFMo/D93rfAfh37ERItMW2a7Qd09sWe7rbV54OqIV52KYTRCmQTwo1nvys3wsDVILI1XeSfdrzrUsKwsatkl1MKLRJArQ5oH/JcDQU+t2gp7lkf3CnUg2I074NxHDiwdEKqBPmLITpi5YZZqUN7L5VNsWOO49ylEa9fkK/c/JzZeHy0wPCsoKQDl2PfvDzO64Uwozgcj6aBOmOWk6bF82ElEmT2P9egS5n+46ZZP9bjgRppSx1Q38XJQp6+wp4JG7Yc4IIAcV7z1m2mtekbde4Ht5V19MsL6Ai6OyZYyd85nhJ4kMnG3TCEdIShT3vP3ayVG2jUzXOpGKEH7WPlg93+n3r4tl4B5/IiEWgfdc7xpd/79SsAVQpXQKu374DDTv1kuQsU6QATBwU0AOishK2UwZ/b4gvX7/GZ5KN4LiO07WTaED6Ge0NyJMepfyVa8PjJ/+yJn13gKe8WrhTuRZEQqPWuAN7S6xJWUh++giEjhbN/rfypMB20nBB8vSZYNEcCOV3ongjdyFIii9gtOZbVxQEbn09YYsgt4uRDDtws5PEb7PDXW+sjkUzV1FcWfTmDqN6y98tKwhau/5bd+9D8dqNuWXbJ75Xr99AlpL+dzaVSmLwDsUxmN4JgxmQlEAZnViYqoCPE+dBA6mn/3vmMSlpQZmzbCWMnTkfn6gmgO1LA0Z/kwunY+ws+N5X6TDr7/1bpAlYmWzhwv2dalkdcB6rtJcYr9iIivFom2LsDQXhyo1bULZBQAPTnJkzoJvhsV6qtbVinE2uWvPEMjTeys4w3iLPibnRG+KC8cMhX45s0iJp9EyYaOhZKEUDpCvX6uVKwbAe1j3GmkGEFITkZ46i7cAbuJG3iP304MWqtfDfrHmQGKM3Sv0pUy5ItH4lhPM7RVIuwv+bPhuior+U8IkS2mgz55Z4ultB+Io2ZXS1gBqVdL3wjZ4cylcO+HeYqNHgbo26ELVMafi+R2czMBjSctcOb7xgkIWVQ0hz5juu/D6lIJA3tvb9zPl+lsFwtmi7S0GQ79lDkoJAHWQE3qXOx7tUu1aIZ8960csMR5YfQYzoUdGBjD9Pbj6ZjtPBOQPFbLlBiX7V5m3Qe+QErykIMjbUN36tXl968kjuX4NCMrP7Mlsf2UD65LY1ED1qVIfs5y5dgbm/r4LJg7VjMQRGOOMbuQrC53//tdkd+L0YUF41fMKN3M1fS6HyYHsC+XTEWMkOIG6/nrBgxRpoiM9sbxYrA0kP7wYK236vXlNIvGOj2xWEe7UaAt7dQCi6vsG7cv9/8Z4NfyOvi6HRQVUydKzk7sSZf5SLqyeCNKnrRFcedPWhPkHXqntmfIHzGg1IOenqoZ3chyMB2LnlBCFm9OhwfMsqGD19Du4mzcU78KaCMB+N5/Kj8VxIUxCo1c9fvgqVm7aFLegfPkWSRFJHyF66Kjx/+ZLTxwLQuLp4cwaoq2VYqpgPZVq9ZTv0Qle3yolKKZ4SQ3djpXfd4EPwOIjiSQWBCpL5169aAfp19HfPqxWsad8f6O8DPVPqtZunMXyKBpm0M4+LLw8okXKQ9PBeCBsvrv3vgHYJFzH2gr/h5YPm7fCZJD6R9gsTXrQm2mzcDxgnwNNXDJ64XlC2p1FbyONqJUZR7TPKpqw7S0Xz5YYZFl/70JU9Xd3nz5EV5o8f4bQcelHyDwbB4qTGNSpDr3YtOaQBaNyiIBQvmBemDRsAekGCnElmVUGQ3cGaqXVrfEvfCd/SF8c3zbcUsRrcPbmakSmwael9t17cCmeyucO48zPuWshKuDmGx92H4XFlN9D0tIzelofERJPEN/zfV7zH3rBzj90Ggdz9yr9/pf/6+s0h7OwBtJD/ir99QUczCX/+ySXovuIJAh13BqVx4WkFgQCt1rw9nMX4BJQK5s4Oc8c4usWVXz3Qd2X8Bpcaw0LmmwWLQ+I9aACIY+sD+re4W6sBGh0elTjRtcMPQ/rBd78Wkv6WF+CDx05iBFibrQIF57I5MrMlvfDx9C2kKAjO4v8om2jOmCFQKHdOC61my8Ltx7KfD05BcdHd+h/rl3NIA9C4RUGQDZs4u0K1BPIkNGIKHoPj8RYl9ZMgJd9Z6GTnV3Sys3bbTugxzNy9aKHcOWDOmKHwPzTcy6Uw3AtKE6GlVnaSSXaYoyRpWa8mdGnhb0vSBX0YbPTzYSDTXdy3BcKjxbFI7kXAyhjSG1NGkinLUkZWpd8pTC+F6w0qiTuxulofun4hF730IkcvUXhntV2Nq+Wayo93+VdSZoDQeB1iixIq+zRAp1AZsvvbJWBY7+foTjrh2mVsC/2Afc3f7wH5QTjdrxtExWignCQ/qXRGq4xWyuHJobmE3kUrYNA4TtLbwOrldXUt4fbjFj36SY64uMmqXJYVBC3BrExuZiJYKcts0rU3HDzqH0KUA9QP38eGw+usaVIc/kGRhryjkZc0ZdLqTGRsRQoW541uUMTBV2S2MobUspM3y3QYEe+HOHGkf8m1NUUxVSe5rCzp09hfjBANBW+iGA1BKXEnVnfVaeC4SbB03RafPmWhIGBv9h+EGHVtLtEdnjza/75oWTlQY0l9bOvnD/AF3bCnuHLWJag9dbVAQjkLFKUUmkJ892jTXPqJOy6tLsRyuRR5lAIgGvEh52VkGM5NRvz0+LhVQSDf5eRTm9xqOyY6HPVLqo91KpXVdM1rVPHS9ZrBA3wnrlUW5ZV+D/Dxm2kXmEZyiO8CAXcicByf/IYmXwV+vgwkXwnkI8HvN9l3gj8N+Uzw/04ufYdPmYk+FB6jQfgXeIHP8l68fOUgYtH8uWFo9052N+MT5y6EvNmyQO22XQ0nJnfW1Z28uBO4O8skXlYnXnfLocfP5lb6PNwqVRE+Xr9hPz24mjIjJL942iOxDt6dOiO9PlAaSZqp77OFS+Hluk3os2KFmWxs2ja9B8EbdLFtlMhzaER0NkWpYBWGF0qkoyf4rqRpC5fA8vVbYPWcKRDPL7CaFr+zFy9D2z58z6aHvX3F4AoIIq9AQCAQeAj0GjEOY3TsgU/0xEyRSqAt0VS0JQqKSY6b4G3ZfV1B+ILPNG+XqQjRKlWALxja+MXa9ZKBRMT06fBqwd/RnSdwo1DRlMjxl+T5y+a5S1J4/TyCSb+TMmz/G/87SsH8EG84f/HzhOyCpw0Bt54gCFAFAgIBgYBAQCAgEAgeCAgFIXi0o6iFQEAgIBAQCAgE3IqAUBDcCqdgJhAQCAgEBAICgeCBgFAQgkc7iloIBAQCAgGBgEDArQgIBcGtcApmAgGBgEBAICAQCB4I6CoIJzAqGSW0L4VsGdM71Nb/Wyj8Zosfrk4yTXaNvBTUJ1aMGFIWoiOHOxnTpJL+vvvgIbzFJyipkiW1s5yDDj2iRf0OapS3hXyWeSvLzJYhnc0aFtPMxcsxAmAkqF+1op3kC74tPX3BFh0wTswYGI44gYPIZ/AbvT9VykuR2eilpLoOnmp68knw7v17iX2WdGkcQsw+f/ECrmHYXWUiuQiLODFjOoRXvozPmd68fQdZERM1VskxAEsM9G9OgbX+ffZMs25v372HXsPHwLCeXdFZTiR7kafOXQDyskeJeEthi/2SVnvTbxGwbTP4te3Zi38HsJynOpDzmZPIO368H+DHH2zuYM9cvATpUqaAcBjIyai9PdEe12/dhmd+zwPTJE/q4Bfg1PmLdkc5mdOm1nSKM3n+bxA3dmyoWaFMAPHIRerIabPQGVUTiP9jvAAYRsKnVeS/QCsRFlGwb6tDB9PvFM5ZOR4l2ogRIU3K5BIr8j5KLrfTI64R/TxV3sG38k/w3bqyj1M+iqYa7bsoUj76OxLySefH5+ade9iOnxwirlIb9h09ASqikxxOECRPtFlI5qk1RlInS4LjN0qA8ZM1fVoHvxhO+xSOcZpbleM8Os7FKZIkhucvXuKcdMfed16/eQt/49yTLkVyiOQXCZJ4K/vWBex/S9duhOG9utjna7mP0b/Uh7NmSOvw7Rx6ryTHU3KfJ/fWFPjNW/Oysl8dQI+vh4+fhO6tm0M4DFWtTGu37kB31A+gU/OAAQvP4Nz3GV8Naa2HaTEMOK1Xvpg0FYRpC5bAxHm/OchLC/SpbbYY49pRvXba6YdNngELV9pCKKufAakdmsh/Xz6wHRfE0A6uJp/hopijjGOo4unD+0Pr3oMDYJk7aybo3qopVMJ4A8okR15r3h3d+R457vAtU7pUsGqmLZyuLEeDahWhbwebly1vO19xhqveNy0Zlb+ZyWfUtnq8yDVyhqLlJMz+PrANwmKglVptugApWMo+oJd/3Kz5qNTZnlypPZf179gaBk+cHqC9u7dqAs3q1PDYmNKSVfYe6aydNu/aC50GjXSQyygiHH0/de4i1GwdMOKfMm+WEhXhFU7C6nFFE3X2MlUdfi9Ztync8FMotbzBqX8rgj7k6d23ut+/wYAwmTAwDKXL2LZhsG31xrCy0t54/rcZg/lsxOea6jQbvaXuOvgHrEL/+fTflJ6jstd9yChI9MvP0LtdK+m37fsPwdotO6B1wzqQCRU9SvS2nJxEjerTTfqb3IDTxmPW6CHS3/v/PAbL1m6y86Xf5EA+P8b9HtbNm2b3L+GxzqliTNFR0/1aVrO40xjKniKoKlPNCqVhSLeO9rYmB0fkGdJorm7SpQ8cPHbC3s/kWC4nt66G6BhCmvoFYUXKorJ/7cSQyYkxZLJ63JCb9b/3b3Poc1p9SNnfJuO6NAXXp0Txf4Jdvy/0FsTw8eMnSPtrQGWf6kkuzlMWKOEgy4IJIyBfdtszT0pyHVIlTQybFs1y+J0UrpN+a6vXKsQsyKmCQP64yS+31oQgh2ROXQg9P6FDFr1JkNy1kttWNVDqCSo27uqPblrpUJbRAk3fR/XpCpVLFXdoBDVv+ltWELS+yQ1Inhb/efo/qS6dBo4AmoAoeWOyU3YiKo9OEjIULS9pqZf2bdVVVlJhgJUvisFNmjW9CZ8+fAAUK5BXypcWd37rceJSJi1saRLNXroKjMFQ2xUx5DZNoO36DsHOa4tip8zzFuXLiPLFjRMLVs6cBIWq1pPYd8OFuzku3OR5MXaMaHhKgScfWB91/ZSyKBWEFnVrQNeWTQLU9+LVa1CxcRsMOzwGcmbOyOze1sn0FkGqi/LbjgOHcVEZDAVzoW/+scM0xwqdkJFyQWGDKXzwnxtXSKGAlUlWEKidqL30FL/seGJ34q8LGGlxFOTOmllicePOXSDf7JRG9u4qxbSg/HmyZYYjJ8844J8hdUo4h/751W2SPHFC2Lp4ToB2UioI8eLGgUMKt7zEg5RAUgZro8OzQV3aS/lpgZBP86y3gHFOmrBp4lan09vXQtGajeA/dKku17N+h27w56m/HMazjDGdjpzbvVGzj8o0zWpXw11jM8hXqZZ9jlD2aaUMgemGnOT9BSNw7lm5SBLp1Zs3koKg57GW6BMl+FmKxzK0ewc8pbUtgtdv3YFS6IyOkvy7NJfgbvciuiomXK/cuInhwVtCK3TN3hlds9P3koXyS/MGfd+C82dHnEfpvylK5HB0py9H1C1crR468/rHoR+mx1OztXOnQvmGLfEk4qbd3bfWhsdbc7Lcrs7WImdzBeWndYTWk8h4qkKns+q1MlgrCKNnYATHpasCVLpUoXyw48Af0pG0lvKgnKB+/OF7ePTPU4lOqzPoxV/XUhDSpEgKG+bPkNpVuXhyFITeGPGKvNCRHGlwkf2Eiy2lXcvn4yCKbzxjuUjBXZSUxciKRMPqlaBP+1bQGTviJuyQSny5CkKJ2o3hJl49qNuLjsH3rfpNc/GjyXXmiIHQoFNPSSzy8Hfl4A6Jdstvs6BM/RamFATioe4H9JuvKgh0bJi6UGmoULwIjOnXXVKMyhf7FcYNsOHBndzUCgKdCEhHuH7KFS26xHvVrElQrUUHibf8bQn60x80waYARo8WFU5uXSOVewoXyqwlKzvgnw2Pb0/iaQXFT7n94AGUqNVEyqcM0KOUWVYQSDl4/ORf3THq7QlbOQbKN8IF5dpNh36bE2OtKBUE5e5VrRwpsXR2OkL5lAoCzQ80T2iNLxenAsvZrSgI+zHQl6zgy9iMmzUPT/VsngyVmzf5RE+JYWKcG3fiHEllH1q3DPJjpEH6XrZBc1QibmuOZ7k/y4ou5ZUVhA07dkPXIaNRmdggHb3LbUJeDemaTN64WgbJZEa6eiYXyAnx1GK3xqmFus806twLryFOgbxuyd/H4vxA9VKuZ/QtyCoIShx/nz5BuhuSJ72YeI9Nu8rbeOcSMUJ4uwvj/+G9dq5yNaTTgOFTZsDGnf6LlXrClP+mqwuKub548mio1767ffI7evqs/W91hDE5r3yC8A/GP89XsTa0QG22q1+gIXL9LGtssoJAO6i/r92Q7sJH9OoMVcuUhFevUcsuWQku46RJSoW8QNExUaNOvaBdo7rQvkl9k93KPLm6o9GxFR1fKRdMJVflIA2Dx4Qkv7MJjvIunz5eulPU26EqJ0sZY/koUM5TsUQRjDS4V9opHsN2HoVhvtdu2wW0+5+1ZIVdXhoItKhpTchyPeibfIIwqEs7GDBuinSUTQFxlLIEloJAdaVTArpGKV8cF/7+Pe3YybtxWc6zaMdSrWVHmIEKU9H8eexjRf5O+Mn9mJQKBFDaaV/C4D6ygkA7+ad4ykDKgTxhUn6yqxk3a4GEpRxZTsa1WguMMoiuV0nW9XjkLvcX5b9yW5Kb5d2H/oRlU8dBUzw+JwWT2lFvkZQVBIphQovjGnQBW6VZOzu9sh/RCQnJTYmumryVzCoIv00ajacvmRyOvNV9VPn3HLxeaNa9n4SrUkGQvTcGpnKkxlhPQdCaN4bjVfACvAom+ZVzDdGWrtccrqEdTt7smeGPE7ZTKOJ9cO1SKFC5jsOYpp0xhZEvXK2+nY5cDpeo0wTe47jRUvjl/kgnEuvnT5d402YjwY8/wFU8vdDqj/SbHHDPW32LypFPUwZ2bgt1KpeXlAVKP2H47D0rFkmyR4kcCWOYbJB+X7p2AwwcPw1PpTZJUWnpu1KJal6nOp602k78grSC0BiDvvyHR8TrUaPTazD6/fyeTXaf1eXweOgyHg8pB1jZooVgwkBbKFGtBUxrAZTz090YXWPQQqmUQeYlKwj/PX8OOctWBzmkM33XUhC0BgoZltCRpH0QYOcugL635QUuJd4bbVbcG3mqcwZUEPzjs8vfSKGhFDZsaId7RBkbokua8BfYvnSuHW9S5orksy1YA7u01bw20mob+Te6o6Qdp3IXRt+a18aO3roppMHFjhQu6gfpi5STjqopVobWAkX55DqkTpYY6lerZFcQZHr5GFPZ3oGlIMhtnRpPpjb6nUypcejSohG0rFcL5Chxs0YNxoijuQL0d8oXA3f4J/x2+DJvqreWDYJy4VH2jRUbt6BB4CT7ca38TV7EqfwWPfpr4l+nUjlYtn6zZKRGhrsFc2WDA35Bz7QWSVlB0BujSrm0dumeGitKvmYVBLoWq1SymKTMqu/fteanYT06Qp9REyFfjqzSoilfQyppaYPz8tVrSazDuIv+wYkffU9ioqcgFCuQBzd00aSiaWNEiZR32V5gz+E/oWXPAbBj2TxIggbcucpVh/89e24f03S1V7ddN0mZpfF+BgN6fYe2GjIGNO9OX7TM3ufoCprcecsnyHobErre2LV8QYC5hU41KKqvcl5SjhdPYqjmfeXGLTwNaQGj8Pqust/1nVIWqpvyKv33DVug35hJ0rUV9S+yD1k0cSRe+WXRXP+C7AmCfJRz6959KF6rMbRBY56OTTG2OAIi2yAY7VjVjaqnILTvPxS27T1obxu1Vr5683boNXK8dA9I94Fyx1HbINDOgHYIlOSFi3gprxieotV2ngo1gYyKSCPeuHMPdBk8yt65+3dsg4Zx0+x/fx87FhzZ4Fm/5cqBoDVRaw0wGSz5jkuexElWklnmyb1ikCcF9cIk119PBvUiUShPDtiPBqGyPCvxWJys/fXyyycIRE87azq2V/ebwFIQtHaHWosi0ZEymxJPoPQMXfXGilJB0LNBUCslhA+dPpASq5aHTvpI4ZDxpxM6MjImus7NG8ElPEHbvs821rR2d0p+SgWhadc+qEzYjNT08sqR8ry5q+YqCGTPUyBndqDFkHZ89NInScL4cPOO/7WaVht1bt4Qxs9eKNX5l59/xJdWjwLglhtPTelVEKUdqJwnQSU9MJKegqBlg6DVp2QFVqk8EB3Zs/x56qy9v+3FnXMCxELNQ61I0g6adtJ6CgKdGtZGpZW+yydmeuNkPF7bdUYD4AypU+BJ1lSvwUvBzrKhbVb+nNlg/rjh9nlVbwy06zcEx9ch6SQ0N64zz9AWRp2Uc3yQVxC6Dh4pHSnTM8Oh3Ts6KAi10PKa7jSPb1kFMaNHl76FQ6OsdLjjonQGjz5lIOlfPQVB/kZHsGSVq55g5CsEshNoVKOyvZHcYaTYpAuGjj52UiqzTP3m0lPL9x9sMpC89LqCXll4Omlho7UIaMlBeWknKx9DyzT0O1dBkHcRa+dOwcGaUnpumrFYBZiHxncF0AiPqyBIrxjweV9/PJKjPPWrlId+nWx1oYujAAAGxklEQVT/rewLsoxKBUFW3uRvcj/wVQWB7kTp1CRHpvSwFI/tnSkB8jf13aSWgkC7DnkcyH0//k/x4Hs05lWPK7WCQPj3bt8S6lWpIMkjH43Sfw/v2QmNGEtIiozeBKenIMhjlBbaT58+S+OjZN0m+FriHszF1wIFMRy4LysIFB2PouTlq1hLqvvq2ZNh5m/LYPfhowGuwZQTOCkIhfPkAjodzZk5AxzDiJv0PU1hPDnzw4H4HT5xSrqSDAoKgvJePRaeMBr1Kfreqn4tScGk/jF9+EA0gs6DL1zKo6Jle5ot238Rvv9gYChK9fBInuYB2fBQxlU2GlXiLCsIY2fOk0536BSUTkP1FHJPz8dK/pxxLddF62o4c1rbM/6n//2HxplPYM3sKfj8O2XQvmJQN4CyMeUTBNnYhN7ED+7WAY8+J8KKGRMgC761pUTPhshYccaIAXgva7OqlycmecJR75jVE5dSDvXuVqkgUNjaaQuXOYgt757URoq1WuMzvHPnYR1azcpPI4k3aXs50MBpwXh8poJHinqLmic6p5ZGf3HvFggfPlwATZ3KV17tSIoZvhWmo341RlrtqFWW1jGyuq2Uf8t8lRiRkeeCFWsdnsTJVx56ZSoVBLlPyLx9XUFQykuytu49EJ/YHXGA/BK+YCClWTYo1WoPtZHiw3+eSCFm48WNLT3Re//eUWkmxY0UOPUJQFd8ykdHu0olJEv61DBhQB8oWLUuPmUcKF03UVtExVOF03i64GzyU54g6LWNXrt6Yoxo8eSeIJA/iw0LZjjUdzTaz8xZ5m9krYUFKQit6te2bRboasbv1ZDcnnHxtO4PPLXzZQVBjRvdnz98/MRhrpBPDdQ2QB3wdHcrnu4q5+lShfPD5CH9pOtkUpwoya8dRk6dBfN+X+Mwz6v7jnp8E7ZKmxs9pWDvH0el6zOteciT/W0R2moMRZsNrbH7P7zezoXX28pUCl9zTB7aT+oz5HPkPJ6iaM2XgT12jDDTfOZI1r8l6vg7e2iBz9aa4n2znLKXqQKrZ01Gq86fpZ9K4ZtrMk5sWKOK9JzlxBZb56BECkSOslWhbcO6ePRaCd9rV4FiOEGRowxK9LdMfxuvMqq17CA5/tm2xHaHToZApO0mxOOsnXhXpUyU99im1ZLlvJxo0Gamd9uosPyN92XycysyIGvWo5+DbJS/QI5s0oA/gjHMj29eHQCvgvh879u3L3BwjaPiYQSsle9Fajaw32MWQOVk3ACb3QalAXintXW//xUM/UbyyvXbvGsfDJo41aFdZHyVsiTF+8XfZ0yEOu26wtWbt+yfiI9c/94jx8GarbugRMF8OAn0tdPkLFdNcoIyz++YTf5AOJIDpmXTxgeoNn2ri0eIHZo2xJ1bTfjg9zJEJqS2J8dBZRu2sLcNGeTN+3019pk62Gdsp0W0U8tTsQYcWb8igIMSK1gb5anavB3cwZMkZV+W8+RCHDKmSQ1010+JdjwrNm2109L4yYMGe9QHabJVJ1JIyV6BMJe/kxFkgSq1sT+vsjuxoXETHt+KR0Vj4BcvX+I110o7K7rvpv6yf9USKFStLmRNlxZm+smjLI/w79C4PlQqVQzp6jn0GZnu2Jmz0Bafs8p1pTxlixaGAXjqQ9cm1O7yN3raVrd9N3QCFQsN02zPIilNX7gUJs1fLNVpx9J5ksW3txJXQciXPQssmDASxsyYi7vet2iP0x5W4dVlb7y6VG9S1CcIpCDIr3yoXlqbGrm+gXmCQG03okdnKIpPnCl9+fIVcpV39CXToUkDWLZuo2QMq+zfj1ApLd+4FWxeOAv/bQkZ8BRxzphhmmO6Z5vm0kkUJSqTkpKX1m9E82uNBvAAnzeORDuISn7P02Ueg7u2h1KFC0q8arbqCDfu3pN4FqxSByLgCwbyp0CJ7MVevHqpOTY93efSo78XelqbPPEvaJc226E4ybAa17sj+Iw5VozodmxonNB4kVNenAfpOTrVTcZJ/lYkb27pqbKvJOFq2VdaQsghEBAIWEKAbAlWb94GDarblElK9x4+gr1oayD/tmjlWqiNx910yqZMZPr8G36T6Zahlz96WlcRFSpKlE/Jl/6mpPyN/MB0GjRces01tHsnyQhYJIFAcEBAKAjBoRVFHQQCAgGBgEBAIOBmBISC4GZABTuBgEBAICAQEAgEBwSEghAcWlHUQSAgEBAICAQEAm5GQCgIbgZUsBMICAQEAgIBgUBwQEAoCMGhFUUdBAICAYGAQEAg4GYEhILgZkAFO4GAQEAgIBAQCAQHBISCEBxaUdRBICAQEAgIBAQCbkbg/35kxxJOoGBzAAAAAElFTkSuQmCC;fontFamily=Comic Sans MS;" vertex="1" parent="bA4HHIahDuAjgqxs_33y-38">
          <mxGeometry width="256.0961538461538" height="80.76923076923076" as="geometry" />
        </mxCell>
        <mxCell id="bA4HHIahDuAjgqxs_33y-41" value="Family Night / Dev Night" style="text;html=1;align=center;verticalAlign=middle;resizable=0;points=[];autosize=1;strokeColor=none;fillColor=none;fontFamily=Comic Sans MS;" vertex="1" parent="1">
          <mxGeometry x="45" y="810" width="160" height="20" as="geometry" />
        </mxCell>
        <mxCell id="bA4HHIahDuAjgqxs_33y-42" style="edgeStyle=orthogonalEdgeStyle;rounded=1;orthogonalLoop=1;jettySize=auto;html=1;sketch=1;shadow=1;fontFamily=Comic Sans MS;" edge="1" parent="1" source="bA4HHIahDuAjgqxs_33y-33" target="bA4HHIahDuAjgqxs_33y-40">
          <mxGeometry relative="1" as="geometry" />
        </mxCell>
        <mxCell id="bA4HHIahDuAjgqxs_33y-43" value="Skill Sharing" style="icon;html=1;image=img/clipart/Gear_128x128.png;shadow=1;sketch=1;fontFamily=Comic Sans MS;" vertex="1" parent="1">
          <mxGeometry x="395" y="860" width="60" height="60" as="geometry" />
        </mxCell>
        <mxCell id="bA4HHIahDuAjgqxs_33y-46" style="edgeStyle=orthogonalEdgeStyle;rounded=1;orthogonalLoop=1;jettySize=auto;html=1;entryX=0.5;entryY=0;entryDx=0;entryDy=0;sketch=1;shadow=1;fontFamily=Comic Sans MS;" edge="1" parent="1" source="bA4HHIahDuAjgqxs_33y-34" target="bA4HHIahDuAjgqxs_33y-43">
          <mxGeometry relative="1" as="geometry" />
        </mxCell>
        <mxCell id="bA4HHIahDuAjgqxs_33y-47" value="" style="shape=image;html=1;verticalAlign=top;verticalLabelPosition=bottom;labelBackgroundColor=#ffffff;imageAspect=0;aspect=fixed;image=https://cdn2.iconfinder.com/data/icons/seo-flat-6/128/03_Landing_Page_Optimization-128.png;shadow=1;sketch=0;fontFamily=Comic Sans MS;" vertex="1" parent="1">
          <mxGeometry x="361" y="1050" width="108" height="108" as="geometry" />
        </mxCell>
        <mxCell id="bA4HHIahDuAjgqxs_33y-48" value="Landing Page" style="text;html=1;align=center;verticalAlign=middle;resizable=0;points=[];autosize=1;strokeColor=none;fillColor=none;fontFamily=Comic Sans MS;" vertex="1" parent="1">
          <mxGeometry x="370" y="1150" width="90" height="20" as="geometry" />
        </mxCell>
        <mxCell id="bA4HHIahDuAjgqxs_33y-51" value="" style="group;fontFamily=Comic Sans MS;" vertex="1" connectable="0" parent="1">
          <mxGeometry x="220" y="822" width="84" height="88" as="geometry" />
        </mxCell>
        <mxCell id="bA4HHIahDuAjgqxs_33y-49" value="" style="shape=image;html=1;verticalAlign=top;verticalLabelPosition=bottom;labelBackgroundColor=#ffffff;imageAspect=0;aspect=fixed;image=https://cdn3.iconfinder.com/data/icons/forall/1062/window-128.png;shadow=1;sketch=0;fontFamily=Comic Sans MS;" vertex="1" parent="bA4HHIahDuAjgqxs_33y-51">
          <mxGeometry width="68" height="68" as="geometry" />
        </mxCell>
        <mxCell id="bA4HHIahDuAjgqxs_33y-50" value="Products Page" style="text;html=1;align=center;verticalAlign=middle;resizable=0;points=[];autosize=1;strokeColor=none;fillColor=none;fontFamily=Comic Sans MS;" vertex="1" parent="bA4HHIahDuAjgqxs_33y-51">
          <mxGeometry x="-11" y="68" width="90" height="20" as="geometry" />
        </mxCell>
        <mxCell id="bA4HHIahDuAjgqxs_33y-52" style="edgeStyle=orthogonalEdgeStyle;rounded=1;sketch=1;orthogonalLoop=1;jettySize=auto;html=1;entryX=0.5;entryY=0;entryDx=0;entryDy=0;shadow=1;fontFamily=Comic Sans MS;" edge="1" parent="1" source="bA4HHIahDuAjgqxs_33y-33" target="bA4HHIahDuAjgqxs_33y-49">
          <mxGeometry relative="1" as="geometry">
            <Array as="points">
              <mxPoint x="254" y="680" />
            </Array>
          </mxGeometry>
        </mxCell>
        <mxCell id="bA4HHIahDuAjgqxs_33y-59" value="" style="group;fontFamily=Comic Sans MS;" vertex="1" connectable="0" parent="1">
          <mxGeometry x="375" y="1260" width="80" height="68" as="geometry" />
        </mxCell>
        <mxCell id="bA4HHIahDuAjgqxs_33y-53" value="" style="sketch=0;pointerEvents=1;shadow=0;dashed=0;html=1;strokeColor=none;fillColor=#505050;labelPosition=center;verticalLabelPosition=bottom;verticalAlign=top;outlineConnect=0;align=center;shape=mxgraph.office.communications.chat_room;fontFamily=Comic Sans MS;" vertex="1" parent="bA4HHIahDuAjgqxs_33y-59">
          <mxGeometry x="17" width="46" height="48" as="geometry" />
        </mxCell>
        <mxCell id="bA4HHIahDuAjgqxs_33y-58" value="Chat Room" style="text;html=1;align=center;verticalAlign=middle;resizable=0;points=[];autosize=1;strokeColor=none;fillColor=none;fontFamily=Comic Sans MS;" vertex="1" parent="bA4HHIahDuAjgqxs_33y-59">
          <mxGeometry x="5" y="48" width="70" height="20" as="geometry" />
        </mxCell>
        <mxCell id="bA4HHIahDuAjgqxs_33y-67" style="edgeStyle=orthogonalEdgeStyle;rounded=1;sketch=1;orthogonalLoop=1;jettySize=auto;html=1;shadow=1;fontFamily=Comic Sans MS;" edge="1" parent="1" source="bA4HHIahDuAjgqxs_33y-64" target="bA4HHIahDuAjgqxs_33y-53">
          <mxGeometry relative="1" as="geometry" />
        </mxCell>
        <mxCell id="bA4HHIahDuAjgqxs_33y-66" style="edgeStyle=orthogonalEdgeStyle;rounded=1;sketch=1;orthogonalLoop=1;jettySize=auto;html=1;shadow=1;fontFamily=Comic Sans MS;" edge="1" parent="1" source="bA4HHIahDuAjgqxs_33y-65" target="bA4HHIahDuAjgqxs_33y-53">
          <mxGeometry relative="1" as="geometry" />
        </mxCell>
        <mxCell id="bA4HHIahDuAjgqxs_33y-65" value="" style="verticalLabelPosition=bottom;html=1;verticalAlign=top;align=center;strokeColor=#3A5431;fillColor=#6d8764;shape=mxgraph.azure.user;shadow=1;sketch=0;fontColor=#ffffff;fontFamily=Comic Sans MS;" vertex="1" parent="1">
          <mxGeometry x="163" y="1260" width="47.5" height="50" as="geometry" />
        </mxCell>
        <mxCell id="bA4HHIahDuAjgqxs_33y-68" value="Developers" style="text;html=1;align=center;verticalAlign=middle;resizable=0;points=[];autosize=1;strokeColor=none;fillColor=none;fontFamily=Comic Sans MS;" vertex="1" parent="1">
          <mxGeometry x="155.5" y="1340" width="80" height="20" as="geometry" />
        </mxCell>
        <mxCell id="bA4HHIahDuAjgqxs_33y-69" value="" style="verticalLabelPosition=bottom;html=1;verticalAlign=top;align=center;strokeColor=#3A5431;fillColor=#6d8764;shape=mxgraph.azure.user;shadow=1;sketch=0;fontColor=#ffffff;fontFamily=Comic Sans MS;" vertex="1" parent="1">
          <mxGeometry x="173" y="1270" width="47.5" height="50" as="geometry" />
        </mxCell>
        <mxCell id="bA4HHIahDuAjgqxs_33y-70" value="" style="verticalLabelPosition=bottom;html=1;verticalAlign=top;align=center;strokeColor=#3A5431;fillColor=#6d8764;shape=mxgraph.azure.user;shadow=1;sketch=0;fontColor=#ffffff;fontFamily=Comic Sans MS;" vertex="1" parent="1">
          <mxGeometry x="183" y="1280" width="47.5" height="50" as="geometry" />
        </mxCell>
        <mxCell id="bA4HHIahDuAjgqxs_33y-76" value="" style="group;fontFamily=Comic Sans MS;" vertex="1" connectable="0" parent="1">
          <mxGeometry x="380" y="1420" width="105" height="70" as="geometry" />
        </mxCell>
        <mxCell id="bA4HHIahDuAjgqxs_33y-74" value="" style="sketch=0;aspect=fixed;pointerEvents=1;shadow=0;dashed=0;html=1;strokeColor=#BD7000;labelPosition=center;verticalLabelPosition=bottom;verticalAlign=top;align=center;fillColor=#f0a30a;shape=mxgraph.azure.user;fontColor=#000000;fontFamily=Comic Sans MS;" vertex="1" parent="bA4HHIahDuAjgqxs_33y-76">
          <mxGeometry x="22" width="47" height="50" as="geometry" />
        </mxCell>
        <mxCell id="bA4HHIahDuAjgqxs_33y-75" value="Project Manager" style="text;html=1;align=center;verticalAlign=middle;resizable=0;points=[];autosize=1;strokeColor=none;fillColor=none;fontFamily=Comic Sans MS;" vertex="1" parent="bA4HHIahDuAjgqxs_33y-76">
          <mxGeometry x="-5" y="50" width="110" height="20" as="geometry" />
        </mxCell>
        <mxCell id="bA4HHIahDuAjgqxs_33y-77" style="edgeStyle=orthogonalEdgeStyle;rounded=1;sketch=1;orthogonalLoop=1;jettySize=auto;html=1;shadow=1;fontFamily=Comic Sans MS;" edge="1" parent="1" source="bA4HHIahDuAjgqxs_33y-74" target="bA4HHIahDuAjgqxs_33y-58">
          <mxGeometry relative="1" as="geometry" />
        </mxCell>
        <mxCell id="bA4HHIahDuAjgqxs_33y-79" value="" style="group;fontFamily=Comic Sans MS;" vertex="1" connectable="0" parent="1">
          <mxGeometry x="611.25" y="1260" width="50" height="80" as="geometry" />
        </mxCell>
        <mxCell id="bA4HHIahDuAjgqxs_33y-64" value="" style="verticalLabelPosition=bottom;html=1;verticalAlign=top;align=center;strokeColor=#432D57;fillColor=#76608a;shape=mxgraph.azure.user;shadow=1;sketch=0;fontColor=#ffffff;fontFamily=Comic Sans MS;" vertex="1" parent="bA4HHIahDuAjgqxs_33y-79">
          <mxGeometry x="1.25" width="47.5" height="50" as="geometry" />
        </mxCell>
        <mxCell id="bA4HHIahDuAjgqxs_33y-78" value="Client" style="text;html=1;align=center;verticalAlign=middle;resizable=0;points=[];autosize=1;strokeColor=none;fillColor=none;fontFamily=Comic Sans MS;" vertex="1" parent="bA4HHIahDuAjgqxs_33y-79">
          <mxGeometry y="60" width="50" height="20" as="geometry" />
        </mxCell>
        <mxCell id="bA4HHIahDuAjgqxs_33y-87" value="" style="group;fontFamily=Comic Sans MS;" vertex="1" connectable="0" parent="1">
          <mxGeometry x="585" y="1690" width="52" height="80" as="geometry" />
        </mxCell>
        <mxCell id="bA4HHIahDuAjgqxs_33y-81" value="" style="sketch=0;aspect=fixed;pointerEvents=1;shadow=0;dashed=0;html=1;strokeColor=#432D57;labelPosition=center;verticalLabelPosition=bottom;verticalAlign=top;align=center;fillColor=#76608a;shape=mxgraph.azure.user;fontColor=#ffffff;fontFamily=Comic Sans MS;" vertex="1" parent="bA4HHIahDuAjgqxs_33y-87">
          <mxGeometry x="5" width="47" height="50" as="geometry" />
        </mxCell>
        <mxCell id="bA4HHIahDuAjgqxs_33y-84" value="Client" style="text;html=1;align=center;verticalAlign=middle;resizable=0;points=[];autosize=1;strokeColor=none;fillColor=none;fontFamily=Comic Sans MS;" vertex="1" parent="bA4HHIahDuAjgqxs_33y-87">
          <mxGeometry y="60" width="50" height="20" as="geometry" />
        </mxCell>
        <mxCell id="bA4HHIahDuAjgqxs_33y-88" value="" style="group;fontFamily=Comic Sans MS;" vertex="1" connectable="0" parent="1">
          <mxGeometry x="172" y="1690" width="48" height="70" as="geometry" />
        </mxCell>
        <mxCell id="bA4HHIahDuAjgqxs_33y-82" value="" style="sketch=0;aspect=fixed;pointerEvents=1;shadow=0;dashed=0;html=1;strokeColor=#3A5431;labelPosition=center;verticalLabelPosition=bottom;verticalAlign=top;align=center;fillColor=#6d8764;shape=mxgraph.azure.user;fontColor=#ffffff;fontFamily=Comic Sans MS;" vertex="1" parent="bA4HHIahDuAjgqxs_33y-88">
          <mxGeometry width="47" height="50" as="geometry" />
        </mxCell>
        <mxCell id="bA4HHIahDuAjgqxs_33y-86" value="Dev" style="text;html=1;align=center;verticalAlign=middle;resizable=0;points=[];autosize=1;strokeColor=none;fillColor=none;fontFamily=Comic Sans MS;" vertex="1" parent="bA4HHIahDuAjgqxs_33y-88">
          <mxGeometry x="8" y="50" width="40" height="20" as="geometry" />
        </mxCell>
        <mxCell id="bA4HHIahDuAjgqxs_33y-89" value="" style="group;fontFamily=Comic Sans MS;" vertex="1" connectable="0" parent="1">
          <mxGeometry x="386" y="1590" width="47" height="70" as="geometry" />
        </mxCell>
        <mxCell id="bA4HHIahDuAjgqxs_33y-80" value="" style="sketch=0;aspect=fixed;pointerEvents=1;shadow=0;dashed=0;html=1;strokeColor=#BD7000;labelPosition=center;verticalLabelPosition=bottom;verticalAlign=top;align=center;fillColor=#f0a30a;shape=mxgraph.azure.user;fontColor=#000000;fontFamily=Comic Sans MS;" vertex="1" parent="bA4HHIahDuAjgqxs_33y-89">
          <mxGeometry width="47" height="50" as="geometry" />
        </mxCell>
        <mxCell id="bA4HHIahDuAjgqxs_33y-85" value="PM" style="text;html=1;align=center;verticalAlign=middle;resizable=0;points=[];autosize=1;strokeColor=none;fillColor=none;fontFamily=Comic Sans MS;" vertex="1" parent="bA4HHIahDuAjgqxs_33y-89">
          <mxGeometry x="9" y="50" width="30" height="20" as="geometry" />
        </mxCell>
        <mxCell id="bA4HHIahDuAjgqxs_33y-90" style="edgeStyle=orthogonalEdgeStyle;rounded=1;sketch=1;orthogonalLoop=1;jettySize=auto;html=1;entryX=1;entryY=0.8;entryDx=0;entryDy=0;entryPerimeter=0;shadow=1;fontFamily=Comic Sans MS;" edge="1" parent="1" source="bA4HHIahDuAjgqxs_33y-81" target="bA4HHIahDuAjgqxs_33y-82">
          <mxGeometry relative="1" as="geometry" />
        </mxCell>
        <mxCell id="bA4HHIahDuAjgqxs_33y-91" value="Hire Devs" style="text;html=1;align=center;verticalAlign=middle;resizable=0;points=[];autosize=1;strokeColor=none;fillColor=none;fontFamily=Comic Sans MS;" vertex="1" parent="1">
          <mxGeometry x="285" y="1730" width="70" height="20" as="geometry" />
        </mxCell>
        <mxCell id="bA4HHIahDuAjgqxs_33y-92" style="edgeStyle=orthogonalEdgeStyle;rounded=1;sketch=1;orthogonalLoop=1;jettySize=auto;html=1;entryX=1.021;entryY=0.08;entryDx=0;entryDy=0;entryPerimeter=0;shadow=1;fontFamily=Comic Sans MS;" edge="1" parent="1" source="bA4HHIahDuAjgqxs_33y-81" target="bA4HHIahDuAjgqxs_33y-80">
          <mxGeometry relative="1" as="geometry" />
        </mxCell>
        <mxCell id="bA4HHIahDuAjgqxs_33y-93" value="Assign PM" style="text;html=1;align=center;verticalAlign=middle;resizable=0;points=[];autosize=1;strokeColor=none;fillColor=none;fontFamily=Comic Sans MS;" vertex="1" parent="1">
          <mxGeometry x="510" y="1615" width="70" height="20" as="geometry" />
        </mxCell>
        <mxCell id="bA4HHIahDuAjgqxs_33y-94" style="edgeStyle=orthogonalEdgeStyle;rounded=1;sketch=1;orthogonalLoop=1;jettySize=auto;html=1;shadow=1;fontFamily=Comic Sans MS;" edge="1" parent="1" source="bA4HHIahDuAjgqxs_33y-80">
          <mxGeometry relative="1" as="geometry">
            <mxPoint x="200" y="1680" as="targetPoint" />
          </mxGeometry>
        </mxCell>
        <mxCell id="bA4HHIahDuAjgqxs_33y-95" value="Controls Devs and project" style="text;html=1;align=center;verticalAlign=middle;resizable=0;points=[];autosize=1;strokeColor=none;fillColor=none;fontFamily=Comic Sans MS;" vertex="1" parent="1">
          <mxGeometry x="190" y="1590" width="160" height="20" as="geometry" />
        </mxCell>
        <mxCell id="bA4HHIahDuAjgqxs_33y-96" style="edgeStyle=orthogonalEdgeStyle;rounded=1;sketch=1;orthogonalLoop=1;jettySize=auto;html=1;shadow=1;fontFamily=Comic Sans MS;" edge="1" parent="1" source="bA4HHIahDuAjgqxs_33y-80" target="bA4HHIahDuAjgqxs_33y-81">
          <mxGeometry relative="1" as="geometry">
            <Array as="points">
              <mxPoint x="410" y="1570" />
              <mxPoint x="614" y="1570" />
            </Array>
          </mxGeometry>
        </mxCell>
        <mxCell id="bA4HHIahDuAjgqxs_33y-97" value="&lt;div&gt;Report Writing and &lt;br&gt;&lt;/div&gt;&lt;div&gt;Communication&lt;/div&gt;" style="text;html=1;align=center;verticalAlign=middle;resizable=0;points=[];autosize=1;strokeColor=none;fillColor=none;fontFamily=Comic Sans MS;" vertex="1" parent="1">
          <mxGeometry x="425" y="1540" width="120" height="30" as="geometry" />
        </mxCell>
        <mxCell id="bA4HHIahDuAjgqxs_33y-98" value="Almanac" style="text;html=1;align=center;verticalAlign=middle;resizable=0;points=[];autosize=1;strokeColor=none;fillColor=none;fontFamily=Comic Sans MS;fontSize=29;" vertex="1" parent="1">
          <mxGeometry x="320" y="60" width="130" height="40" as="geometry" />
        </mxCell>
      </root>
    </mxGraphModel>
  </diagram>
</mxfile>
